<svg width="277" height="93" viewBox="0 0 277 93" fill="none" xmlns="http://www.w3.org/2000/svg">
<circle cx="46.5" cy="46.5" r="46.5" fill="#F4F0EC"/>
<path d="M61.0012 55.0749C59.7796 53.8442 56.8211 52.0482 55.3857 51.3243C53.5164 50.3828 53.3625 50.3059 51.8933 51.3974C50.9133 52.1258 50.2617 52.7766 49.1148 52.532C47.9678 52.2874 45.4754 50.9082 43.2931 48.7329C41.1107 46.5576 39.6514 43.9931 39.4061 42.8501C39.1607 41.7071 39.8222 41.0632 40.5438 40.081C41.5607 38.6964 41.4838 38.4657 40.6145 36.5965C39.9368 35.1427 38.0883 32.2121 36.8529 30.9967C35.5313 29.6914 35.5313 29.9222 34.6798 30.276C33.9865 30.5677 33.3214 30.9222 32.6928 31.3352C31.462 32.1529 30.7789 32.8321 30.3012 33.8528C29.8235 34.8735 29.6089 37.2665 32.0759 41.7478C34.5429 46.2292 36.2737 48.5206 39.8561 52.0928C43.4385 55.6649 46.1931 57.5856 50.2202 59.844C55.2018 62.6339 57.1126 62.09 58.1365 61.6131C59.1604 61.1362 59.8427 60.4593 60.662 59.2286C61.076 58.6011 61.4314 57.9368 61.7235 57.2441C62.0781 56.3957 62.3089 56.3957 61.0012 55.0749Z" stroke="#CDA274" stroke-width="2" stroke-miterlimit="10"/>
<path d="M112.872 31.1C112.872 30.316 112.944 29.604 113.088 28.964C113.232 28.308 113.44 27.756 113.712 27.308C113.984 26.844 114.304 26.492 114.672 26.252C115.056 25.996 115.48 25.868 115.944 25.868C116.408 25.868 116.824 25.996 117.192 26.252C117.576 26.492 117.904 26.844 118.176 27.308C118.448 27.756 118.656 28.308 118.8 28.964C118.944 29.604 119.016 30.316 119.016 31.1C119.016 31.884 118.944 32.604 118.8 33.26C118.656 33.9 118.448 34.452 118.176 34.916C117.904 35.364 117.576 35.716 117.192 35.972C116.824 36.212 116.408 36.332 115.944 36.332C115.48 36.332 115.056 36.212 114.672 35.972C114.304 35.716 113.984 35.364 113.712 34.916C113.44 34.452 113.232 33.9 113.088 33.26C112.944 32.604 112.872 31.884 112.872 31.1ZM108.96 31.1C108.96 32.924 109.248 34.484 109.824 35.78C110.416 37.076 111.24 38.076 112.296 38.78C113.352 39.468 114.568 39.812 115.944 39.812C117.368 39.812 118.6 39.468 119.64 38.78C120.696 38.076 121.504 37.076 122.064 35.78C122.64 34.484 122.928 32.924 122.928 31.1C122.928 29.276 122.64 27.716 122.064 26.42C121.504 25.124 120.696 24.132 119.64 23.444C118.6 22.74 117.368 22.388 115.944 22.388C114.568 22.388 113.352 22.74 112.296 23.444C111.24 24.132 110.416 25.124 109.824 26.42C109.248 27.716 108.96 29.276 108.96 31.1ZM125.763 27.548L129.915 26.516V39.5H133.827V22.388L125.763 24.02V27.548ZM137.062 39.5H151.294V35.78H144.574L148.486 32.276C149.206 31.652 149.79 30.964 150.238 30.212C150.686 29.444 150.91 28.604 150.91 27.692C150.91 27.052 150.774 26.42 150.502 25.796C150.23 25.172 149.822 24.604 149.278 24.092C148.75 23.564 148.086 23.148 147.286 22.844C146.486 22.524 145.566 22.364 144.526 22.364C143.086 22.364 141.862 22.66 140.854 23.252C139.862 23.844 139.118 24.636 138.622 25.628C138.126 26.62 137.878 27.716 137.878 28.916H141.862C141.862 28.308 141.958 27.772 142.15 27.308C142.358 26.844 142.654 26.484 143.038 26.228C143.438 25.972 143.894 25.844 144.406 25.844C144.79 25.844 145.126 25.908 145.414 26.036C145.702 26.148 145.942 26.308 146.134 26.516C146.326 26.708 146.47 26.932 146.566 27.188C146.662 27.444 146.71 27.7 146.71 27.956C146.71 28.404 146.622 28.828 146.446 29.228C146.286 29.612 146.038 30.004 145.702 30.404C145.382 30.804 144.998 31.252 144.55 31.748L137.062 39.5ZM159.172 31.364C160.5 31.364 161.7 31.204 162.772 30.884C163.844 30.564 164.692 30.084 165.316 29.444C165.956 28.804 166.276 28.004 166.276 27.044C166.276 26.18 166.044 25.396 165.58 24.692C165.132 23.988 164.468 23.428 163.588 23.012C162.708 22.596 161.636 22.388 160.372 22.388C159.188 22.388 158.148 22.62 157.252 23.084C156.356 23.532 155.66 24.156 155.164 24.956C154.684 25.74 154.444 26.628 154.444 27.62H158.164C158.164 27.028 158.372 26.548 158.788 26.18C159.204 25.812 159.732 25.628 160.372 25.628C160.804 25.628 161.156 25.7 161.428 25.844C161.7 25.972 161.908 26.164 162.052 26.42C162.196 26.676 162.268 26.964 162.268 27.284C162.268 27.588 162.196 27.876 162.052 28.148C161.908 28.42 161.692 28.66 161.404 28.868C161.132 29.076 160.804 29.244 160.42 29.372C160.052 29.484 159.636 29.54 159.172 29.54V31.364ZM160.18 39.884C161.556 39.884 162.732 39.676 163.708 39.26C164.684 38.828 165.436 38.244 165.964 37.508C166.492 36.756 166.756 35.892 166.756 34.916C166.756 34.068 166.572 33.34 166.204 32.732C165.836 32.124 165.308 31.628 164.62 31.244C163.932 30.844 163.124 30.556 162.196 30.38C161.284 30.188 160.276 30.092 159.172 30.092V32.156C159.78 32.156 160.308 32.212 160.756 32.324C161.204 32.436 161.572 32.604 161.86 32.828C162.164 33.036 162.388 33.284 162.532 33.572C162.676 33.86 162.748 34.18 162.748 34.532C162.748 34.996 162.644 35.388 162.436 35.708C162.228 36.028 161.94 36.26 161.572 36.404C161.22 36.548 160.804 36.62 160.324 36.62C159.876 36.62 159.444 36.532 159.028 36.356C158.628 36.18 158.308 35.908 158.068 35.54C157.828 35.172 157.708 34.716 157.708 34.172H153.724C153.724 34.908 153.868 35.62 154.156 36.308C154.46 36.996 154.884 37.612 155.428 38.156C155.988 38.7 156.668 39.124 157.468 39.428C158.268 39.732 159.172 39.884 160.18 39.884ZM168.054 36.524H183.462V33.068H180.03L179.622 33.596H173.43L177.054 28.58V35.012L176.598 35.276V39.5H180.822V22.7H177.798L168.054 36.524ZM199.236 34.124C199.236 32.956 198.996 31.964 198.516 31.148C198.036 30.332 197.404 29.708 196.62 29.276C195.852 28.844 195.02 28.628 194.124 28.628C193.596 28.628 193.084 28.676 192.588 28.772C192.108 28.852 191.644 28.996 191.196 29.204L192.156 26.204H198.876V22.7H189.18L186.828 32.396C187.404 32.108 187.964 31.892 188.508 31.748C189.068 31.588 189.604 31.484 190.116 31.436C190.644 31.372 191.124 31.34 191.556 31.34C192.116 31.34 192.636 31.42 193.116 31.58C193.612 31.74 194.012 31.996 194.316 32.348C194.636 32.684 194.796 33.132 194.796 33.692C194.796 34.22 194.668 34.668 194.412 35.036C194.156 35.404 193.788 35.676 193.308 35.852C192.828 36.028 192.244 36.116 191.556 36.116C191.156 36.116 190.708 36.044 190.212 35.9C189.716 35.74 189.22 35.532 188.724 35.276C188.244 35.004 187.772 34.676 187.308 34.292L185.724 37.628C186.252 38.012 186.836 38.372 187.476 38.708C188.116 39.044 188.844 39.308 189.66 39.5C190.492 39.708 191.42 39.812 192.444 39.812C193.26 39.812 194.068 39.708 194.868 39.5C195.668 39.276 196.396 38.932 197.052 38.468C197.724 38.004 198.252 37.412 198.636 36.692C199.036 35.972 199.236 35.116 199.236 34.124ZM205.632 33.596C205.632 33.036 205.752 32.54 205.992 32.108C206.248 31.676 206.584 31.34 207 31.1C207.432 30.86 207.92 30.74 208.464 30.74C208.992 30.74 209.464 30.86 209.88 31.1C210.312 31.34 210.648 31.676 210.888 32.108C211.144 32.54 211.272 33.036 211.272 33.596C211.272 34.172 211.144 34.676 210.888 35.108C210.648 35.524 210.312 35.852 209.88 36.092C209.464 36.316 208.992 36.428 208.464 36.428C207.92 36.428 207.432 36.316 207 36.092C206.584 35.852 206.248 35.524 205.992 35.108C205.752 34.676 205.632 34.172 205.632 33.596ZM208.416 22.772L203.568 28.94C203.024 29.612 202.56 30.332 202.176 31.1C201.808 31.868 201.624 32.7 201.624 33.596C201.624 34.972 201.928 36.132 202.536 37.076C203.16 38.004 203.984 38.708 205.008 39.188C206.048 39.652 207.2 39.884 208.464 39.884C209.712 39.884 210.848 39.652 211.872 39.188C212.912 38.708 213.736 38.004 214.344 37.076C214.968 36.132 215.28 34.972 215.28 33.596C215.28 32.748 215.128 31.988 214.824 31.316C214.536 30.644 214.136 30.076 213.624 29.612C213.128 29.132 212.568 28.772 211.944 28.532C211.336 28.276 210.72 28.148 210.096 28.148C209.488 28.148 208.976 28.212 208.56 28.34C208.16 28.468 207.736 28.756 207.288 29.204L208.128 28.844L213.552 22.772H208.416ZM217.439 26.492H225.191L218.639 39.5H223.031L231.143 22.7H217.439V26.492ZM233.268 26.756C233.268 27.524 233.428 28.196 233.748 28.772C234.084 29.332 234.524 29.804 235.068 30.188C235.612 30.556 236.22 30.828 236.892 31.004C237.564 31.18 238.244 31.268 238.932 31.268C239.62 31.268 240.3 31.18 240.972 31.004C241.644 30.828 242.252 30.556 242.796 30.188C243.356 29.804 243.796 29.332 244.116 28.772C244.452 28.196 244.62 27.524 244.62 26.756C244.62 25.812 244.356 25.012 243.828 24.356C243.316 23.684 242.628 23.18 241.764 22.844C240.916 22.492 239.972 22.316 238.932 22.316C237.908 22.316 236.964 22.492 236.1 22.844C235.252 23.18 234.564 23.684 234.036 24.356C233.524 25.012 233.268 25.812 233.268 26.756ZM237.084 27.14C237.084 26.772 237.156 26.444 237.3 26.156C237.46 25.852 237.684 25.62 237.972 25.46C238.26 25.3 238.58 25.22 238.932 25.22C239.316 25.22 239.644 25.3 239.916 25.46C240.204 25.62 240.42 25.852 240.564 26.156C240.724 26.444 240.804 26.772 240.804 27.14C240.804 27.524 240.724 27.86 240.564 28.148C240.404 28.436 240.18 28.66 239.892 28.82C239.62 28.98 239.3 29.06 238.932 29.06C238.58 29.06 238.26 28.98 237.972 28.82C237.7 28.66 237.484 28.436 237.324 28.148C237.164 27.86 237.084 27.524 237.084 27.14ZM232.668 34.94C232.668 35.708 232.836 36.396 233.172 37.004C233.508 37.612 233.972 38.132 234.564 38.564C235.156 38.996 235.828 39.324 236.58 39.548C237.332 39.772 238.116 39.884 238.932 39.884C239.764 39.884 240.556 39.772 241.308 39.548C242.06 39.324 242.732 38.996 243.324 38.564C243.916 38.132 244.38 37.612 244.716 37.004C245.052 36.396 245.22 35.708 245.22 34.94C245.22 34.06 245.028 33.308 244.644 32.684C244.26 32.044 243.748 31.532 243.108 31.148C242.484 30.748 241.804 30.46 241.068 30.284C240.332 30.092 239.62 29.996 238.932 29.996C238.244 29.996 237.532 30.092 236.796 30.284C236.06 30.46 235.38 30.748 234.756 31.148C234.132 31.532 233.628 32.044 233.244 32.684C232.86 33.308 232.668 34.06 232.668 34.94ZM236.7 34.316C236.7 33.916 236.796 33.548 236.988 33.212C237.196 32.876 237.468 32.612 237.804 32.42C238.156 32.228 238.532 32.132 238.932 32.132C239.348 32.132 239.724 32.228 240.06 32.42C240.412 32.612 240.684 32.876 240.876 33.212C241.084 33.548 241.188 33.916 241.188 34.316C241.188 34.812 241.084 35.228 240.876 35.564C240.684 35.9 240.412 36.156 240.06 36.332C239.724 36.508 239.348 36.596 238.932 36.596C238.532 36.596 238.156 36.508 237.804 36.332C237.468 36.156 237.196 35.9 236.988 35.564C236.796 35.228 236.7 34.812 236.7 34.316Z" fill="#4D5053"/>
<path d="M110.86 62.8C110.86 61.5973 111.124 60.5487 111.652 59.654C112.195 58.7447 112.899 58.0333 113.764 57.52C114.629 57.0067 115.568 56.75 116.58 56.75C117.313 56.75 117.981 56.8453 118.582 57.036C119.198 57.2267 119.755 57.498 120.254 57.85C120.753 58.1873 121.178 58.5833 121.53 59.038V56.574C120.885 56.002 120.181 55.5767 119.418 55.298C118.655 55.0193 117.709 54.88 116.58 54.88C115.509 54.88 114.505 55.078 113.566 55.474C112.642 55.8553 111.828 56.4053 111.124 57.124C110.42 57.828 109.87 58.664 109.474 59.632C109.078 60.6 108.88 61.656 108.88 62.8C108.88 63.944 109.078 65 109.474 65.968C109.87 66.936 110.42 67.7793 111.124 68.498C111.828 69.202 112.642 69.752 113.566 70.148C114.505 70.5293 115.509 70.72 116.58 70.72C117.709 70.72 118.655 70.5807 119.418 70.302C120.181 70.0233 120.885 69.598 121.53 69.026V66.562C121.178 67.0167 120.753 67.42 120.254 67.772C119.755 68.1093 119.198 68.3733 118.582 68.564C117.981 68.7547 117.313 68.85 116.58 68.85C115.568 68.85 114.629 68.5933 113.764 68.08C112.899 67.5667 112.195 66.8553 111.652 65.946C111.124 65.0367 110.86 63.988 110.86 62.8ZM125.723 67.376C125.723 67.0093 125.811 66.694 125.987 66.43C126.163 66.166 126.427 65.9607 126.779 65.814C127.145 65.6673 127.615 65.594 128.187 65.594C128.803 65.594 129.382 65.6747 129.925 65.836C130.467 65.9827 130.995 66.232 131.509 66.584V65.55C131.406 65.418 131.208 65.2493 130.915 65.044C130.621 64.824 130.225 64.6333 129.727 64.472C129.243 64.296 128.634 64.208 127.901 64.208C126.654 64.208 125.679 64.5087 124.975 65.11C124.285 65.6967 123.941 66.4813 123.941 67.464C123.941 68.1533 124.102 68.74 124.425 69.224C124.747 69.708 125.173 70.082 125.701 70.346C126.243 70.5953 126.823 70.72 127.439 70.72C127.996 70.72 128.553 70.6173 129.111 70.412C129.683 70.2067 130.159 69.8913 130.541 69.466C130.937 69.0407 131.135 68.5053 131.135 67.86L130.783 66.54C130.783 67.068 130.651 67.5373 130.387 67.948C130.137 68.344 129.793 68.652 129.353 68.872C128.927 69.092 128.443 69.202 127.901 69.202C127.475 69.202 127.094 69.136 126.757 69.004C126.434 68.8573 126.177 68.6447 125.987 68.366C125.811 68.0873 125.723 67.7573 125.723 67.376ZM125.459 62.712C125.62 62.5947 125.84 62.4553 126.119 62.294C126.397 62.1327 126.735 61.9933 127.131 61.876C127.541 61.7587 127.996 61.7 128.495 61.7C128.803 61.7 129.096 61.7293 129.375 61.788C129.653 61.8467 129.895 61.942 130.101 62.074C130.321 62.206 130.489 62.3893 130.607 62.624C130.724 62.844 130.783 63.13 130.783 63.482V70.5H132.543V63.24C132.543 62.58 132.374 62.0227 132.037 61.568C131.714 61.1133 131.252 60.7687 130.651 60.534C130.064 60.2847 129.375 60.16 128.583 60.16C127.644 60.16 126.837 60.2993 126.163 60.578C125.503 60.8567 124.982 61.1353 124.601 61.414L125.459 62.712ZM135.742 53.34V70.5H137.502V53.34H135.742ZM141.033 53.34V70.5H142.793V53.34H141.033ZM153.139 55.1V65.44C153.139 66.2027 153.256 66.9067 153.491 67.552C153.74 68.1973 154.092 68.7547 154.547 69.224C155.016 69.6933 155.573 70.06 156.219 70.324C156.864 70.588 157.583 70.72 158.375 70.72C159.167 70.72 159.885 70.588 160.531 70.324C161.176 70.06 161.726 69.6933 162.181 69.224C162.65 68.7547 163.002 68.1973 163.237 67.552C163.486 66.9067 163.611 66.2027 163.611 65.44V55.1H161.741V65.44C161.741 66.496 161.455 67.3467 160.883 67.992C160.311 68.6373 159.475 68.96 158.375 68.96C157.275 68.96 156.439 68.6373 155.867 67.992C155.295 67.3467 155.009 66.496 155.009 65.44V55.1H153.139ZM167.548 67.398L166.162 68.256C166.353 68.652 166.631 69.0407 166.998 69.422C167.379 69.8033 167.841 70.1187 168.384 70.368C168.927 70.6027 169.535 70.72 170.21 70.72C171.251 70.72 172.087 70.4267 172.718 69.84C173.363 69.2533 173.686 68.52 173.686 67.64C173.686 67.0387 173.539 66.5473 173.246 66.166C172.967 65.7847 172.586 65.462 172.102 65.198C171.618 64.9193 171.083 64.6627 170.496 64.428C170.144 64.2813 169.807 64.1273 169.484 63.966C169.161 63.8047 168.897 63.6213 168.692 63.416C168.487 63.2107 168.384 62.976 168.384 62.712C168.384 62.3747 168.516 62.1253 168.78 61.964C169.044 61.8027 169.359 61.722 169.726 61.722C170.254 61.722 170.723 61.8467 171.134 62.096C171.559 62.3453 171.911 62.6607 172.19 63.042L173.598 62.14C173.393 61.7587 173.107 61.4213 172.74 61.128C172.373 60.8347 171.948 60.6 171.464 60.424C170.995 60.248 170.489 60.16 169.946 60.16C169.403 60.16 168.875 60.2553 168.362 60.446C167.863 60.6367 167.453 60.93 167.13 61.326C166.822 61.722 166.668 62.2207 166.668 62.822C166.668 63.4087 166.815 63.9 167.108 64.296C167.416 64.6773 167.79 64.9927 168.23 65.242C168.685 65.4767 169.132 65.682 169.572 65.858C169.968 66.0047 170.342 66.166 170.694 66.342C171.046 66.5033 171.332 66.7087 171.552 66.958C171.787 67.1927 171.904 67.486 171.904 67.838C171.904 68.234 171.757 68.5493 171.464 68.784C171.185 69.004 170.797 69.114 170.298 69.114C169.887 69.114 169.506 69.0407 169.154 68.894C168.817 68.7327 168.516 68.52 168.252 68.256C167.988 67.992 167.753 67.706 167.548 67.398ZM184.623 65.88H192.763L192.103 64.12H185.283L184.623 65.88ZM188.649 58.576L191.289 64.78L191.465 65.22L193.709 70.5H195.799L188.649 54.33L181.499 70.5H183.589L185.877 65.088L186.053 64.692L188.649 58.576ZM204.272 64.34V70.5H206.032V64.12C206.032 62.9027 205.717 61.942 205.086 61.238C204.47 60.5193 203.627 60.16 202.556 60.16C201.896 60.16 201.31 60.3067 200.796 60.6C200.298 60.8933 199.88 61.348 199.542 61.964V60.38H197.782V70.5H199.542V64.34C199.542 63.8413 199.645 63.4013 199.85 63.02C200.07 62.6387 200.371 62.3453 200.752 62.14C201.148 61.92 201.603 61.81 202.116 61.81C202.82 61.81 203.356 62.0227 203.722 62.448C204.089 62.8733 204.272 63.504 204.272 64.34ZM217.484 60.38H215.504L212.38 68.212L213.106 68.3L209.894 60.38H207.804L211.676 69.07L208.904 75.34H210.884L217.484 60.38ZM217.823 60.38V62.03H222.883V60.38H217.823ZM219.473 56.86V70.5H221.233V56.86H219.473ZM224.868 56.2C224.868 56.5227 224.985 56.8087 225.22 57.058C225.469 57.2927 225.755 57.41 226.078 57.41C226.415 57.41 226.701 57.2927 226.936 57.058C227.171 56.8087 227.288 56.5227 227.288 56.2C227.288 55.8627 227.171 55.5767 226.936 55.342C226.701 55.1073 226.415 54.99 226.078 54.99C225.755 54.99 225.469 55.1073 225.22 55.342C224.985 55.5767 224.868 55.8627 224.868 56.2ZM225.198 60.38V70.5H226.958V60.38H225.198ZM244.663 64.12C244.663 63.284 244.531 62.5727 244.267 61.986C244.018 61.3847 243.651 60.93 243.167 60.622C242.683 60.314 242.096 60.16 241.407 60.16C240.732 60.16 240.131 60.3213 239.603 60.644C239.075 60.952 238.635 61.4213 238.283 62.052C238.048 61.4507 237.674 60.9887 237.161 60.666C236.662 60.3287 236.061 60.16 235.357 60.16C234.726 60.16 234.176 60.2993 233.707 60.578C233.252 60.8567 232.871 61.282 232.563 61.854V60.38H230.803V70.5H232.563V64.34C232.563 63.812 232.658 63.3573 232.849 62.976C233.04 62.5947 233.311 62.3087 233.663 62.118C234.015 61.9127 234.433 61.81 234.917 61.81C235.577 61.81 236.061 62.0153 236.369 62.426C236.692 62.8367 236.853 63.4747 236.853 64.34V70.5H238.613V64.34C238.613 63.812 238.708 63.3573 238.899 62.976C239.09 62.5947 239.361 62.3087 239.713 62.118C240.065 61.9127 240.483 61.81 240.967 61.81C241.627 61.81 242.111 62.0153 242.419 62.426C242.742 62.8367 242.903 63.4747 242.903 64.34V70.5H244.663V64.12ZM252.105 70.72C253.19 70.72 254.129 70.5073 254.921 70.082C255.728 69.642 256.395 68.9967 256.923 68.146L255.493 67.244C255.126 67.86 254.679 68.322 254.151 68.63C253.623 68.9233 253.014 69.07 252.325 69.07C251.636 69.07 251.049 68.9233 250.565 68.63C250.081 68.3367 249.714 67.9113 249.465 67.354C249.216 66.7967 249.091 66.122 249.091 65.33C249.106 64.5527 249.238 63.9 249.487 63.372C249.751 62.8293 250.118 62.4187 250.587 62.14C251.071 61.8467 251.65 61.7 252.325 61.7C252.897 61.7 253.396 61.8247 253.821 62.074C254.246 62.3233 254.576 62.668 254.811 63.108C255.06 63.548 255.185 64.0687 255.185 64.67C255.185 64.7727 255.163 64.9047 255.119 65.066C255.075 65.2127 255.031 65.3227 254.987 65.396L255.691 64.384H248.431V65.88H257.077C257.077 65.8507 257.077 65.7847 257.077 65.682C257.092 65.5647 257.099 65.4547 257.099 65.352C257.099 64.2813 256.908 63.3573 256.527 62.58C256.146 61.8027 255.596 61.2087 254.877 60.798C254.173 60.3727 253.322 60.16 252.325 60.16C251.328 60.16 250.448 60.38 249.685 60.82C248.937 61.26 248.35 61.876 247.925 62.668C247.514 63.46 247.309 64.384 247.309 65.44C247.309 66.4813 247.507 67.398 247.903 68.19C248.314 68.982 248.878 69.6053 249.597 70.06C250.33 70.5 251.166 70.72 252.105 70.72Z" fill="#4D5053"/>
</svg>
