<svg width="1091" height="103" viewBox="0 0 1091 103" fill="none" xmlns="http://www.w3.org/2000/svg">
<path d="M11.6337 29.9765V30.1621L10.8629 30.3476V38.5698L11.6337 38.7553V38.9409H7.97946V38.7553L8.7503 38.5698V31.561L5.7241 39.0694H5.33866L1.41317 31.561V38.3699L2.44093 38.7553V38.9409H0V38.7553L1.02777 38.3699V30.3476L0.256931 30.1621V29.9765H1.85567C2.09834 29.9765 2.31246 30.005 2.48376 30.0621C2.65505 30.1192 2.82637 30.1906 2.95484 30.2905C3.09758 30.3905 3.21178 30.5047 3.3117 30.6331C3.41162 30.7616 3.49728 30.9186 3.58292 31.0756L6.38072 36.4286L8.5219 31.0756C8.59327 30.8901 8.66466 30.7331 8.76459 30.6046C8.85023 30.4761 8.9644 30.3619 9.09287 30.262C9.22134 30.1621 9.37839 30.0907 9.56396 30.0479C9.74953 30.005 9.9779 29.9765 10.2634 29.9765H11.6337Z" fill="#292F36"/>
<path d="M16.202 32.3604C16.7302 32.3604 17.2155 32.4318 17.6295 32.5888C18.0434 32.7458 18.4003 32.9742 18.7001 33.2597C18.9998 33.5595 19.214 33.9163 19.371 34.3303C19.528 34.7443 19.5994 35.2296 19.5994 35.7578C19.5994 36.2859 19.528 36.7712 19.371 37.1852C19.214 37.5992 18.9856 37.956 18.7001 38.2558C18.4003 38.5556 18.0434 38.7697 17.6295 38.9267C17.2155 39.0837 16.7302 39.1551 16.202 39.1551C15.6739 39.1551 15.1885 39.0837 14.7746 38.9267C14.3606 38.7697 14.0038 38.5413 13.704 38.2558C13.4042 37.956 13.1901 37.5992 13.0331 37.1852C12.8761 36.7712 12.8047 36.2859 12.8047 35.7578C12.8047 35.2296 12.8761 34.7443 13.0331 34.3303C13.1901 33.9163 13.4185 33.5595 13.704 33.2597C14.0038 32.9599 14.3606 32.7458 14.7746 32.5888C15.1885 32.4318 15.6596 32.3604 16.202 32.3604ZM16.202 38.9124C16.3448 38.9124 16.4875 38.8696 16.6445 38.7697C16.7873 38.6698 16.9157 38.5127 17.0299 38.2701C17.1441 38.0274 17.2441 37.7134 17.3154 37.3137C17.3868 36.8997 17.4296 36.3858 17.4296 35.772C17.4296 35.1439 17.3868 34.6301 17.3154 34.2304C17.2441 33.8307 17.1441 33.5024 17.0299 33.274C16.9157 33.0456 16.7873 32.8743 16.6445 32.7744C16.5018 32.6745 16.3591 32.6316 16.202 32.6316C16.0593 32.6316 15.9165 32.6745 15.7595 32.7744C15.6168 32.8743 15.4883 33.0313 15.3741 33.274C15.2599 33.5166 15.16 33.8307 15.0886 34.2304C15.0172 34.6443 14.9744 35.1582 14.9744 35.772C14.9744 36.4001 15.0172 36.914 15.0886 37.3137C15.16 37.7134 15.2599 38.0417 15.3741 38.2701C15.4883 38.4985 15.6168 38.6698 15.7595 38.7697C15.9023 38.8553 16.045 38.9124 16.202 38.9124Z" fill="#292F36"/>
<path d="M25.836 29.9765C26.6068 29.9765 26.9922 30.3619 26.9922 31.1327V38.584L27.763 38.7696V38.9552H26.6068C26.2928 38.9552 26.0501 38.9124 25.8645 38.8124C25.6789 38.7125 25.5219 38.5983 25.422 38.4841C25.2935 38.3414 25.1936 38.1701 25.1365 37.9988C25.0223 38.2272 24.8796 38.4128 24.7083 38.584C24.5655 38.7268 24.3657 38.8553 24.123 38.9837C23.8803 39.1122 23.5948 39.1693 23.2665 39.1693C22.8954 39.1693 22.5528 39.0979 22.2387 38.9552C21.9104 38.8124 21.6392 38.5983 21.4108 38.3128C21.1825 38.0273 20.9826 37.6705 20.8542 37.2565C20.7114 36.8283 20.6543 36.3429 20.6543 35.772C20.6543 35.201 20.7257 34.7156 20.8542 34.2874C20.9969 33.8592 21.1824 33.5166 21.4394 33.2311C21.682 32.9456 21.9818 32.7315 22.3244 32.5887C22.667 32.446 23.0524 32.3746 23.4807 32.3746C23.7091 32.3746 23.9089 32.4032 24.0945 32.446C24.28 32.5031 24.437 32.5602 24.5655 32.6316C24.7225 32.7029 24.851 32.7886 24.9652 32.8885V30.3905L24.1944 30.2049V30.0193H25.836V29.9765ZM24.9367 33.2596C24.8367 33.1597 24.7511 33.0741 24.6369 33.0027C24.537 32.9313 24.4371 32.8742 24.3229 32.8171C24.2087 32.76 24.0945 32.7458 23.966 32.7458C23.809 32.7458 23.6519 32.7886 23.5092 32.8742C23.3665 32.9599 23.2522 33.1026 23.1381 33.3167C23.0381 33.5309 22.9525 33.8449 22.8954 34.2303C22.8383 34.63 22.8098 35.1296 22.8098 35.7577C22.8098 36.3715 22.8383 36.8568 22.8954 37.2422C22.9525 37.6277 23.0239 37.9274 23.1238 38.1415C23.2095 38.3557 23.3094 38.5127 23.4378 38.584C23.552 38.6554 23.6662 38.6982 23.7804 38.6982C23.9803 38.6982 24.1515 38.6411 24.2943 38.5412C24.437 38.4413 24.5512 38.3128 24.6511 38.1844C24.7653 38.0273 24.8653 37.856 24.9509 37.6705V33.2596H24.9367Z" fill="#292F36"/>
<path d="M32.0605 39.1694C30.9614 39.1694 30.1049 38.8696 29.5054 38.2701C28.8916 37.6705 28.5918 36.8283 28.5918 35.772C28.5918 35.2439 28.6632 34.7585 28.8202 34.3446C28.9772 33.9306 29.1913 33.5738 29.4626 33.274C29.7338 32.9742 30.0621 32.7601 30.4618 32.6031C30.8472 32.4461 31.2754 32.3747 31.7465 32.3747C32.2318 32.3747 32.6601 32.4461 33.0312 32.5745C33.4166 32.7173 33.7306 32.9029 34.0019 33.1312C34.2731 33.3596 34.4729 33.6309 34.6157 33.9449C34.7584 34.2589 34.8298 34.5872 34.8298 34.9441C34.8298 35.0583 34.8298 35.1725 34.8155 35.2582C34.8012 35.3438 34.787 35.4294 34.7727 35.5008C34.7441 35.5865 34.7298 35.6578 34.7013 35.7149C34.3302 35.7863 33.9305 35.8577 33.5022 35.9005C33.1454 35.9576 32.7314 36.0004 32.2604 36.029C31.7893 36.0575 31.304 36.0861 30.7901 36.0861C30.7901 36.6142 30.8329 37.0567 30.9043 37.4136C30.9756 37.7705 31.0898 38.056 31.2183 38.2558C31.3611 38.4699 31.5181 38.6127 31.7036 38.6983C31.8892 38.784 32.1034 38.8268 32.3175 38.8268C32.5744 38.8268 32.8171 38.784 33.0454 38.684C33.2738 38.5841 33.4737 38.4699 33.6307 38.3129C33.802 38.1559 33.9305 37.9703 34.0304 37.7705C34.1303 37.5706 34.1731 37.3708 34.1731 37.1567H34.4872C34.4872 37.4136 34.4301 37.6563 34.3159 37.8989C34.2017 38.1416 34.0304 38.3557 33.8163 38.5413C33.6022 38.7269 33.3452 38.8696 33.0454 38.9838C32.76 39.1123 32.4316 39.1694 32.0605 39.1694ZM30.7758 35.7578C31.0613 35.7578 31.3182 35.7578 31.5466 35.7435C31.775 35.7292 31.9606 35.7149 32.1176 35.7007C32.3032 35.6864 32.4459 35.6578 32.5744 35.6436C32.5887 35.5579 32.6172 35.458 32.6315 35.3581C32.6458 35.2582 32.6601 35.1582 32.6743 35.044C32.6886 34.9298 32.6886 34.8014 32.6886 34.6729C32.6886 34.2875 32.66 33.9592 32.6029 33.7022C32.5458 33.4453 32.4745 33.2312 32.3745 33.0599C32.2889 32.9029 32.189 32.7744 32.0605 32.7173C31.932 32.6602 31.8321 32.6174 31.7179 32.6174C31.6037 32.6174 31.4895 32.6602 31.3753 32.7458C31.2612 32.8315 31.1612 32.9885 31.0613 33.2026C30.9757 33.431 30.89 33.7451 30.8329 34.159C30.7758 34.573 30.7758 35.1011 30.7758 35.7578Z" fill="#292F36"/>
<path d="M40.2265 32.8029C39.9695 32.8029 39.7412 32.86 39.5413 32.9599C39.3415 33.0598 39.1702 33.1883 39.0274 33.3168C38.8704 33.4738 38.7419 33.6451 38.6134 33.8306V38.5841L39.3843 38.7696V38.9552H35.7871V38.7696L36.5579 38.5841V32.9313L35.7871 32.7458V32.5602H36.9433C37.2431 32.5602 37.4858 32.6173 37.6856 32.7172C37.8712 32.8171 38.0282 32.9313 38.1424 33.0455C38.2709 33.1883 38.3708 33.3453 38.4279 33.5166C38.5564 33.331 38.7134 33.1597 38.8989 33.0027C39.056 32.8742 39.2558 32.76 39.4985 32.6459C39.7412 32.5317 40.0124 32.4888 40.3407 32.4888C40.7975 32.4888 41.1401 32.603 41.3685 32.8029C41.5969 33.017 41.6967 33.3168 41.6967 33.7022C41.6967 33.9877 41.6111 34.2303 41.4398 34.4016C41.2685 34.5729 41.0259 34.6586 40.7404 34.6586C40.669 34.6586 40.6119 34.6586 40.5405 34.6586C40.4691 34.6586 40.4263 34.6443 40.3835 34.6443C40.3264 34.63 40.2693 34.63 40.2265 34.6015V32.8029Z" fill="#292F36"/>
<path d="M47.2208 34.473C47.2208 34.1875 47.1923 33.9306 47.1352 33.7165C47.0781 33.5024 47.0067 33.3311 46.9068 33.2026C46.8212 33.0599 46.7212 32.9599 46.5928 32.9028C46.4786 32.8457 46.3643 32.8029 46.2501 32.8029C46.0503 32.8029 45.879 32.86 45.7363 32.9599C45.5935 33.0599 45.4651 33.1883 45.3794 33.3168C45.2652 33.4738 45.1796 33.6451 45.0939 33.8307V38.5841L45.8647 38.7697V38.9552H42.2676V38.7697L43.0384 38.5841V32.9314L42.2676 32.7458V32.5602H43.4238C43.7236 32.5602 43.9662 32.6173 44.1661 32.7173C44.3516 32.8172 44.5087 32.9314 44.6229 33.0456C44.7513 33.1883 44.8512 33.3453 44.9083 33.5166C45.0225 33.3025 45.1653 33.1027 45.3366 32.9314C45.4793 32.7886 45.6792 32.6602 45.9076 32.5317C46.136 32.4032 46.4357 32.3461 46.7783 32.3461C47.1494 32.3461 47.4921 32.4032 47.7918 32.5317C48.1059 32.6459 48.3628 32.8172 48.5769 33.0028C48.791 33.2026 48.9623 33.4167 49.0908 33.6737C49.2193 33.9306 49.2763 34.1875 49.2763 34.4588V38.5698L50.0472 38.7554V38.941H48.3771C47.6063 38.941 47.2208 38.5556 47.2208 37.7847V34.473Z" fill="#292F36"/>
<path d="M1.35547 47.9767V47.4485H11.2762V47.9767L9.19217 48.5049V59.2821H16.672V48.5049L14.5879 47.9767V47.4485H24.5088V47.9767L22.4247 48.5049V70.7731L24.5088 71.3013V71.8295H14.5879V71.287L16.672 70.7589V60.1529H9.19217V70.7589L11.2762 71.287V71.8152H1.35547V71.287L3.43954 70.7589V48.4906L1.35547 47.9767Z" fill="#292F36"/>
<path d="M36.8424 53.8864C38.2842 53.8864 39.5689 54.1005 40.7108 54.5144C41.8528 54.9284 42.8092 55.5422 43.6085 56.3416C44.4079 57.1409 45.0217 58.1116 45.4357 59.2536C45.8496 60.3955 46.0638 61.6803 46.0638 63.122C46.0638 64.5637 45.8496 65.8484 45.4357 66.9904C45.0217 68.1323 44.4079 69.0887 43.6085 69.8881C42.8092 70.6875 41.8385 71.3013 40.7108 71.7153C39.5689 72.1292 38.2842 72.3433 36.8424 72.3433C35.4007 72.3433 34.116 72.1292 32.974 71.7153C31.8321 71.3013 30.8757 70.6875 30.0763 69.8881C29.2769 69.0887 28.6631 68.1181 28.2492 66.9904C27.8352 65.8484 27.6211 64.5637 27.6211 63.122C27.6211 61.6803 27.8352 60.3955 28.2492 59.2536C28.6631 58.1116 29.2769 57.1552 30.0763 56.3416C30.8757 55.5279 31.8464 54.9284 32.974 54.5144C34.116 54.1005 35.4007 53.8864 36.8424 53.8864ZM36.8424 71.6296C37.2421 71.6296 37.6276 71.5011 38.0272 71.2442C38.4269 70.9872 38.7695 70.5447 39.0835 69.9024C39.3976 69.26 39.6545 68.3893 39.8544 67.2901C40.0542 66.191 40.1541 64.7921 40.1541 63.0934C40.1541 61.3948 40.0542 59.9959 39.8544 58.8967C39.6545 57.7976 39.3976 56.9268 39.0835 56.2845C38.7695 55.6421 38.4127 55.1996 38.0272 54.9427C37.6418 54.6857 37.2421 54.5573 36.8424 54.5573C36.4427 54.5573 36.0574 54.6857 35.6577 54.9427C35.258 55.1996 34.9154 55.6421 34.6013 56.2845C34.2873 56.9268 34.0304 57.7976 33.8305 58.8967C33.6307 59.9959 33.5307 61.3948 33.5307 63.0934C33.5307 64.7921 33.6307 66.191 33.8305 67.2901C34.0304 68.3893 34.2873 69.26 34.6013 69.9024C34.9154 70.5447 35.2723 70.9872 35.6577 71.2442C36.0574 71.5011 36.4427 71.6296 36.8424 71.6296Z" fill="#292F36"/>
<path d="M72.1443 59.6247C72.1443 58.7968 72.073 58.0831 71.9302 57.5263C71.7875 56.9696 71.6162 56.4986 71.3878 56.1417C71.1594 55.7849 70.9167 55.5279 70.6598 55.3566C70.3885 55.1996 70.1316 55.1139 69.8747 55.1139C69.4322 55.1139 69.0467 55.2567 68.7042 55.5422C68.3616 55.8277 68.0761 56.156 67.8191 56.4986C67.5479 56.9125 67.291 57.3836 67.0911 57.8832V70.7588L69.1895 71.287V71.8152H59.4542V71.287L61.5384 70.7588V59.6247C61.5384 58.7968 61.4669 58.0831 61.3242 57.5263C61.1815 56.9696 61.0102 56.4986 60.7818 56.1417C60.5534 55.7849 60.3107 55.5279 60.0538 55.3566C59.7826 55.1996 59.5256 55.1139 59.2687 55.1139C58.8262 55.1139 58.4408 55.2567 58.0982 55.5422C57.7556 55.8277 57.4701 56.156 57.2131 56.4986C56.9276 56.9125 56.685 57.3836 56.4852 57.8832V70.7588L58.5692 71.287V71.8152H48.834V71.287L50.9181 70.7588V55.4565L48.834 54.9284V54.4002H51.9601C52.7738 54.4002 53.4447 54.543 53.9585 54.8142C54.4867 55.0854 54.8864 55.3994 55.2005 55.7135C55.543 56.1132 55.8 56.5414 55.9713 56.9982C56.271 56.4129 56.6422 55.899 57.0847 55.428C57.4844 55.0283 57.9697 54.6714 58.5407 54.3431C59.126 54.0148 59.8254 53.8578 60.6676 53.8578C62.0522 53.8578 63.2655 54.1718 64.2648 54.7856C65.2782 55.3994 66.0491 56.1988 66.5773 57.1695C66.877 56.5699 67.2482 56.0275 67.6907 55.5279C68.0904 55.114 68.5757 54.7285 69.1467 54.3859C69.7319 54.0434 70.4314 53.8578 71.2736 53.8578C72.2299 53.8578 73.0864 54.0148 73.8858 54.3146C74.6709 54.6143 75.3561 55.0283 75.9271 55.5565C76.498 56.0846 76.9405 56.6841 77.2546 57.3836C77.5686 58.0831 77.7257 58.8253 77.7257 59.6104V70.7446L79.8097 71.2727V71.8009H75.2847C73.2006 71.8009 72.1586 70.7588 72.1586 68.6748V59.6247H72.1443Z" fill="#292F36"/>
<path d="M91.2852 72.329C88.3161 72.329 86.0037 71.5154 84.3621 69.8738C82.7205 68.2323 81.8926 65.9911 81.8926 63.1077C81.8926 61.666 82.1067 60.3813 82.5207 59.2393C82.9346 58.0973 83.5199 57.1409 84.2622 56.3273C85.0044 55.5279 85.9037 54.9141 86.9601 54.5001C88.0164 54.0862 89.1726 53.8721 90.4145 53.8721C91.7135 53.8721 92.884 54.0576 93.9118 54.4288C94.9395 54.7999 95.8245 55.2995 96.5383 55.9276C97.252 56.5557 97.8087 57.298 98.1941 58.1402C98.5795 58.9824 98.7651 59.8816 98.7651 60.838C98.7651 61.1664 98.7508 61.4518 98.708 61.6945C98.6652 61.9372 98.6366 62.1513 98.5795 62.3369C98.5081 62.5653 98.451 62.7651 98.4082 62.9221C97.3805 63.1362 96.3099 63.3075 95.1679 63.4503C94.1973 63.593 93.0695 63.7072 91.7991 63.8214C90.5287 63.9213 89.1869 63.9784 87.8023 63.9784C87.8023 65.4202 87.9022 66.6192 88.1163 67.5756C88.3304 68.532 88.6159 69.3028 88.987 69.8738C89.3582 70.4448 89.8007 70.8445 90.3145 71.0872C90.8284 71.3298 91.3852 71.4583 91.9847 71.4583C92.6841 71.4583 93.3408 71.3298 93.9546 71.0729C94.5684 70.8159 95.0965 70.4734 95.5533 70.0451C96.0101 69.6169 96.367 69.1315 96.6382 68.5891C96.9094 68.0467 97.0379 67.49 97.0379 66.9333H97.9086C97.9086 67.6327 97.7516 68.3036 97.4376 68.946C97.1235 69.6026 96.681 70.1736 96.0958 70.6732C95.5105 71.1728 94.8253 71.5725 94.0117 71.8723C93.1838 72.172 92.2702 72.329 91.2852 72.329ZM87.8023 63.1077C88.5874 63.1077 89.2868 63.0934 89.8863 63.0506C90.4859 63.0078 90.9998 62.9792 91.4137 62.9364C91.899 62.8936 92.313 62.8365 92.6699 62.7651C92.7127 62.5367 92.7698 62.2798 92.8412 61.9943C92.884 61.7373 92.9268 61.4518 92.9553 61.1378C92.9839 60.8238 93.0125 60.4955 93.0125 60.1529C93.0125 59.1108 92.9268 58.2401 92.7698 57.5263C92.6127 56.8126 92.3986 56.2416 92.156 55.7991C91.9133 55.3566 91.6278 55.0426 91.3281 54.857C91.014 54.6714 90.7 54.5715 90.4002 54.5715C90.1004 54.5715 89.7864 54.6857 89.4724 54.8998C89.1583 55.1282 88.8871 55.5422 88.6444 56.156C88.4018 56.7698 88.2019 57.6405 88.0307 58.754C87.8879 59.8674 87.8023 61.3234 87.8023 63.1077Z" fill="#292F36"/>
<path d="M115.853 71.4583V57.3408L103.377 47.4628V71.4583H115.853Z" fill="#292F36"/>
<path d="M131.282 71.4583V57.3408L119.006 47.4628V71.4583H131.282Z" fill="#292F36"/>
<path d="M290.442 101.606C318.303 101.606 340.889 79.0206 340.889 51.16C340.889 23.2993 318.303 0.713745 290.442 0.713745C262.582 0.713745 239.996 23.2993 239.996 51.16C239.996 79.0206 262.582 101.606 290.442 101.606Z" fill="white"/>
<path d="M290.443 102.32C262.237 102.32 239.283 79.3664 239.283 51.1599C239.283 22.9535 262.237 0 290.443 0C318.65 0 341.603 22.9535 341.603 51.1599C341.603 79.3664 318.65 102.32 290.443 102.32ZM290.443 1.42745C263.022 1.42745 240.711 23.7386 240.711 51.1599C240.711 78.5813 263.022 100.892 290.443 100.892C317.865 100.892 340.176 78.5813 340.176 51.1599C340.176 23.7386 317.865 1.42745 290.443 1.42745Z" fill="#292F36"/>
<path d="M297.637 5.83827C297.98 5.86682 298.279 5.88109 298.522 5.88109L298.494 6.10949C298.094 6.16658 297.751 6.46635 297.48 7.03733L294.083 13.832L293.983 13.8177L293.897 13.8035L291.742 6.22368C291.599 5.72407 291.356 5.45286 291.014 5.41003L291.042 5.18164C291.356 5.23874 291.77 5.28156 292.284 5.33866C292.955 5.39576 293.455 5.43858 293.783 5.43858L293.754 5.66697C293.455 5.6527 293.24 5.66697 293.112 5.7098C292.984 5.75262 292.912 5.86682 292.898 6.00956C292.884 6.13803 292.912 6.3236 292.984 6.56627L294.568 12.3617L296.923 7.62259C297.123 7.23717 297.223 6.92313 297.252 6.69474C297.28 6.45207 297.209 6.26651 297.052 6.13803C296.895 6.00956 296.638 5.93819 296.295 5.89537L296.324 5.66697C296.738 5.73835 297.18 5.79545 297.637 5.83827Z" fill="#292F36"/>
<path d="M307.229 8.85028C307.086 8.85028 306.972 8.90737 306.887 9.02157C306.801 9.13577 306.701 9.32134 306.601 9.59255L304.56 15.0169C304.46 15.2881 304.403 15.5022 304.403 15.645C304.403 15.7877 304.446 15.9019 304.546 15.9875C304.645 16.0732 304.831 16.1731 305.088 16.2873L305.002 16.5014C304.674 16.3587 304.217 16.1731 303.632 15.9447C303.004 15.7021 302.533 15.545 302.219 15.4451L302.304 15.231C302.576 15.3166 302.775 15.3595 302.904 15.3595C303.032 15.3595 303.161 15.3024 303.247 15.1882C303.332 15.074 303.432 14.8884 303.532 14.6172L305.573 9.19286C305.673 8.92165 305.73 8.70753 305.73 8.56479C305.73 8.42204 305.687 8.30784 305.588 8.2222C305.488 8.13655 305.302 8.03663 305.045 7.92243L305.131 7.70831C305.431 7.83678 305.887 8.02235 306.515 8.26502C307.101 8.49341 307.572 8.65043 307.914 8.75035L307.829 8.96447C307.572 8.87883 307.372 8.836 307.229 8.85028Z" fill="#292F36"/>
<path d="M319.934 16.4014C319.791 16.3729 319.648 16.4157 319.52 16.5014C319.391 16.587 319.234 16.7583 319.063 17.001L314.923 22.6109L314.709 22.4538L315.266 13.4323L311.597 18.3999C311.426 18.6425 311.312 18.8424 311.255 18.9994C311.198 19.1564 311.226 19.2992 311.298 19.4419C311.369 19.5847 311.54 19.7417 311.783 19.9415L311.64 20.1271C311.426 19.9415 311.112 19.6989 310.698 19.3848C310.327 19.1136 310.027 18.8995 309.799 18.771L309.942 18.5854C310.17 18.7425 310.356 18.8281 310.498 18.8424C310.641 18.8709 310.784 18.8281 310.912 18.7425C311.041 18.6425 311.198 18.4855 311.369 18.2429L314.738 13.675C314.909 13.4323 315.023 13.2468 315.066 13.1183C315.109 12.9898 315.095 12.8614 315.023 12.7472C314.952 12.633 314.809 12.4902 314.581 12.3046L314.724 12.1191C314.909 12.2904 315.195 12.5188 315.58 12.79C315.866 13.0041 316.108 13.1754 316.337 13.3039L315.88 20.8694L318.849 16.844C319.02 16.6013 319.149 16.4014 319.191 16.2444C319.234 16.0874 319.22 15.9447 319.149 15.8019C319.077 15.6592 318.906 15.4879 318.663 15.3023L318.806 15.1167C319.02 15.3023 319.334 15.545 319.748 15.859C320.119 16.1302 320.419 16.3443 320.647 16.4728L320.505 16.6584C320.262 16.5156 320.076 16.4157 319.934 16.4014Z" fill="#292F36"/>
<path d="M324.716 22.8392C325.087 22.568 325.473 22.2682 325.887 21.8971C326.243 22.4395 326.871 23.3388 327.771 24.6093C328.67 25.8654 329.312 26.7504 329.698 27.2643C329.212 27.5498 328.799 27.8068 328.427 28.0637C328.113 28.2921 327.856 28.4919 327.671 28.6489L327.514 28.4348C327.971 28.0351 328.285 27.7068 328.47 27.4642C328.656 27.2215 328.727 26.9646 328.713 26.6933C328.699 26.4221 328.527 26.0938 328.256 25.6941L327.885 25.1802L322.475 29.0344C322.218 29.2199 322.032 29.3912 321.947 29.5197C321.861 29.6482 321.833 29.8052 321.89 29.9765C321.932 30.1335 322.061 30.3619 322.247 30.6474L322.061 30.7901C321.847 30.4475 321.519 29.9622 321.09 29.377C320.633 28.7346 320.291 28.2778 320.062 27.9923L320.248 27.8496C320.462 28.1208 320.633 28.3064 320.776 28.4063C320.919 28.5062 321.062 28.5348 321.219 28.4919C321.376 28.4491 321.59 28.3349 321.847 28.1493L327.257 24.2952L326.886 23.7813C326.6 23.3816 326.343 23.139 326.101 23.0248C325.858 22.9106 325.587 22.8963 325.301 22.9962C325.016 23.0962 324.602 23.2817 324.074 23.5815L323.917 23.3674C324.131 23.2532 324.388 23.0819 324.716 22.8392Z" fill="#292F36"/>
<path d="M327.456 42.6524L327.227 42.7237C327.142 42.4097 327.028 42.01 326.856 41.5247C326.642 40.8966 326.471 40.4255 326.342 40.1115L326.571 40.0401C326.671 40.3113 326.785 40.5112 326.871 40.6111C326.971 40.711 327.099 40.7396 327.242 40.6825C327.37 40.6396 327.527 40.5397 327.713 40.3827L329.297 39.0837L328.398 36.4144L327.07 36.3573C326.642 36.3287 326.314 36.3573 326.085 36.4429C325.857 36.5286 325.714 36.657 325.657 36.8426C325.614 37.0282 325.643 37.2994 325.743 37.6277L325.515 37.6991C325.4 37.2709 325.258 36.8426 325.115 36.4144C325.001 36.0861 324.901 35.8149 324.801 35.6007L325.029 35.5294C325.229 35.8719 325.657 36.0575 326.285 36.0718L333.879 36.4144L333.936 36.5857L327.884 41.6246C327.513 41.9814 327.37 42.3098 327.456 42.6524ZM332.409 36.5857L328.669 36.4287L329.511 38.941L332.409 36.5857Z" fill="#292F36"/>
<path d="M328.497 53.5724C328.64 53.5153 328.711 53.4439 328.711 53.344C328.711 53.2869 328.697 53.2441 328.669 53.2013C328.64 53.1584 328.583 53.0728 328.497 52.9586C328.283 52.6874 328.126 52.4019 328.012 52.1164C327.898 51.8309 327.841 51.5026 327.841 51.1457C327.826 50.3464 327.983 49.6612 328.298 49.0759C328.626 48.4907 329.083 48.0481 329.711 47.7341C330.325 47.4201 331.067 47.263 331.938 47.2488C332.837 47.2345 333.622 47.3772 334.293 47.6913C334.964 48.0053 335.492 48.4336 335.863 49.0045C336.234 49.5755 336.434 50.2179 336.434 50.9316C336.434 51.2456 336.405 51.5311 336.348 51.7738C336.291 52.0165 336.206 52.2306 336.106 52.4162C336.006 52.6017 335.877 52.8158 335.706 53.0442C335.635 53.1442 335.592 53.2298 335.592 53.2869C335.592 53.4297 335.834 53.5296 336.306 53.5724V53.8436C335.806 53.8151 334.907 53.8151 333.622 53.8436V53.5724C334.036 53.501 334.378 53.4154 334.65 53.3297C334.921 53.2441 335.149 53.1156 335.349 52.9586C335.62 52.7302 335.849 52.4304 336.006 52.0593C336.163 51.6882 336.234 51.317 336.234 50.9173C336.22 50.4034 336.049 49.9609 335.706 49.5755C335.363 49.1901 334.878 48.9046 334.264 48.6905C333.636 48.4907 332.922 48.3907 332.095 48.405C331.152 48.4193 330.396 48.5335 329.796 48.7476C329.197 48.9617 328.769 49.2758 328.483 49.6897C328.198 50.1037 328.069 50.6318 328.083 51.2742C328.098 51.7453 328.226 52.1449 328.469 52.4875C328.569 52.6303 328.654 52.7159 328.754 52.7587C328.84 52.8016 328.968 52.8158 329.125 52.8158L330.253 52.8016C330.581 52.8016 330.81 52.7587 330.967 52.7016C331.11 52.6445 331.224 52.5304 331.267 52.3591C331.324 52.202 331.352 51.9451 331.352 51.6025H331.581C331.566 51.9879 331.552 52.5304 331.566 53.2584C331.581 53.8008 331.595 54.2147 331.623 54.4717H331.395C331.381 54.2861 331.338 54.1577 331.295 54.0863C331.252 54.0149 331.152 53.9578 331.024 53.9293C330.895 53.9007 330.681 53.8864 330.382 53.9007L328.069 53.9435V53.7151C328.198 53.658 328.355 53.6295 328.497 53.5724Z" fill="#292F36"/>
<path d="M326.8 65.72C326.386 65.5915 325.9 65.463 325.344 65.3488C325.529 64.8492 325.801 64.007 326.186 62.8079C326.643 61.3805 326.971 60.2956 327.171 59.5676L327.399 59.639C327.328 59.9102 327.299 60.1101 327.299 60.2528C327.314 60.3955 327.371 60.4955 327.485 60.5811C327.599 60.6668 327.799 60.7524 328.07 60.8381L333.594 62.5796C333.88 62.6652 334.08 62.708 334.223 62.708C334.365 62.708 334.479 62.6509 334.565 62.5367C334.651 62.4225 334.736 62.237 334.836 61.98L335.065 62.0514C334.808 62.7794 334.465 63.85 334.008 65.2774C333.666 66.3623 333.423 67.1474 333.309 67.6185C332.838 67.4186 332.41 67.2473 332.01 67.1331C331.724 67.0475 331.482 66.9761 331.311 66.9476L331.396 66.6906C331.896 66.7905 332.281 66.8334 332.538 66.8334C332.795 66.8334 333.009 66.7477 333.18 66.5764C333.352 66.4194 333.495 66.1339 333.623 65.7485L333.908 64.8207C333.994 64.5494 334.037 64.3496 334.023 64.2211C334.008 64.0927 333.966 63.9785 333.851 63.8928C333.737 63.8072 333.552 63.7215 333.266 63.6359L330.64 62.8079L330.411 63.5502C330.297 63.9214 330.326 64.2069 330.511 64.4067C330.697 64.6065 330.897 64.7493 331.125 64.8492C331.353 64.9491 331.496 65.0205 331.553 65.049L331.468 65.306C331.111 65.1632 330.768 65.0348 330.425 64.9349L329.897 64.7778C329.526 64.6636 328.984 64.5066 328.299 64.3496L328.384 64.0927C328.441 64.1069 328.627 64.1355 328.941 64.2069C329.255 64.2639 329.526 64.2354 329.74 64.1212C329.954 64.007 330.097 63.7929 330.197 63.4931L330.425 62.7508L327.742 61.9087C327.456 61.823 327.257 61.7802 327.114 61.7802C326.971 61.7802 326.857 61.8373 326.785 61.9515C326.7 62.0657 326.614 62.2512 326.529 62.5225L326.272 63.3361C326.129 63.8072 326.072 64.1783 326.129 64.4495C326.172 64.735 326.314 64.9634 326.557 65.1632C326.8 65.3488 327.171 65.5629 327.67 65.7913L327.585 66.0483C327.414 65.9198 327.142 65.8342 326.8 65.72Z" fill="#292F36"/>
<path d="M322.732 83.2348C322.789 83.1064 322.774 82.9779 322.717 82.8494C322.66 82.7209 322.518 82.5639 322.303 82.3498L318.107 78.3387C317.893 78.1388 317.721 78.0104 317.593 77.9533C317.464 77.8962 317.336 77.8962 317.207 77.9533C317.079 78.0104 316.922 78.1388 316.722 78.3387L316.551 78.1816C316.822 77.939 317.165 77.5821 317.607 77.1396C318.064 76.6543 318.406 76.2831 318.621 76.0405L318.792 76.1975C318.606 76.4116 318.492 76.5829 318.435 76.6971C318.378 76.8256 318.392 76.954 318.449 77.0825C318.506 77.211 318.649 77.368 318.863 77.5821L323.06 81.5933C323.274 81.7931 323.445 81.9216 323.574 81.9787C323.702 82.0358 323.831 82.0358 323.959 81.9787C324.088 81.9216 324.245 81.7931 324.445 81.5933L324.616 81.7503C324.373 81.9644 324.016 82.3213 323.56 82.8066C323.117 83.2634 322.789 83.6345 322.56 83.9057L322.389 83.7487C322.56 83.5346 322.675 83.3633 322.732 83.2348Z" fill="#292F36"/>
<path d="M310.84 91.9422C310.926 91.8138 310.94 91.6853 310.912 91.5283C310.883 91.3713 310.783 91.1714 310.626 90.9002L307.086 84.8906L307.314 84.7479L315.394 88.7876L312.268 83.4774C312.111 83.2205 311.982 83.0349 311.854 82.935C311.725 82.8351 311.582 82.7923 311.425 82.8065C311.268 82.8208 311.054 82.9065 310.783 83.0492L310.655 82.8494C310.912 82.7352 311.254 82.5353 311.697 82.2784C312.096 82.0357 312.396 81.8501 312.61 81.6931L312.724 81.893C312.496 82.0357 312.339 82.1784 312.268 82.3069C312.182 82.4354 312.168 82.5639 312.196 82.7209C312.225 82.8779 312.325 83.0777 312.482 83.349L315.365 88.2451C315.508 88.5021 315.636 88.6734 315.751 88.759C315.865 88.8447 315.979 88.8875 316.122 88.8589C316.25 88.8304 316.45 88.759 316.693 88.6305L316.807 88.8304C316.579 88.9446 316.264 89.1159 315.851 89.3585C315.551 89.5298 315.294 89.7011 315.08 89.8439L308.299 86.4608L310.84 90.7717C310.997 91.0287 311.126 91.2142 311.254 91.3142C311.368 91.4141 311.511 91.4569 311.682 91.4426C311.854 91.4283 312.068 91.3427 312.339 91.2L312.453 91.3998C312.196 91.514 311.854 91.7138 311.411 91.9708C311.011 92.2134 310.712 92.399 310.498 92.556L310.383 92.3562C310.597 92.1992 310.754 92.0564 310.84 91.9422Z" fill="#292F36"/>
<path d="M302.99 93.8123C303.09 94.2549 303.218 94.7402 303.389 95.2541C302.747 95.3683 301.676 95.5967 300.163 95.9107C298.65 96.239 297.594 96.4817 296.966 96.6387C296.894 96.082 296.823 95.5967 296.723 95.1542C296.637 94.7687 296.566 94.4547 296.48 94.2263L296.737 94.1692C296.923 94.7545 297.094 95.1684 297.251 95.4396C297.408 95.7109 297.608 95.8822 297.865 95.9678C298.122 96.0534 298.493 96.0392 298.964 95.9392L299.578 95.8108L298.179 89.3159C298.108 89.0018 298.036 88.7734 297.936 88.645C297.837 88.5165 297.722 88.4308 297.551 88.4166C297.38 88.388 297.123 88.4166 296.78 88.4737L296.737 88.2453C297.137 88.1882 297.708 88.074 298.422 87.917C299.178 87.7457 299.749 87.6172 300.106 87.5173L300.149 87.7457C299.806 87.8313 299.578 87.917 299.435 88.0026C299.293 88.0883 299.207 88.2167 299.178 88.3737C299.15 88.5308 299.164 88.7734 299.235 89.0875L300.634 95.5824L301.248 95.4539C301.719 95.354 302.062 95.2112 302.262 95.0257C302.461 94.8401 302.576 94.5974 302.604 94.2977C302.633 93.9979 302.619 93.5411 302.547 92.9416L302.804 92.8845C302.847 93.1129 302.904 93.4269 302.99 93.8123Z" fill="#292F36"/>
<path d="M284.047 89.8011C284.09 89.3586 284.104 88.859 284.104 88.3022C284.632 88.3736 285.517 88.4593 286.773 88.5735C288.258 88.7019 289.385 88.8019 290.156 88.8447L290.142 89.0731C289.857 89.0588 289.657 89.0731 289.528 89.1159C289.4 89.1587 289.3 89.2301 289.243 89.3586C289.186 89.487 289.143 89.7012 289.114 89.9866L288.6 95.7678C288.572 96.0533 288.586 96.2674 288.615 96.4102C288.643 96.5529 288.729 96.6528 288.857 96.7099C288.986 96.767 289.186 96.8241 289.457 96.8527L289.443 97.0811C288.686 96.9954 287.558 96.8812 286.074 96.7528C284.932 96.6528 284.118 96.5958 283.633 96.5672C283.733 96.0676 283.804 95.6108 283.833 95.1968C283.861 94.8971 283.875 94.6544 283.861 94.4688L284.132 94.4974C284.147 95.0113 284.175 95.3824 284.247 95.6394C284.304 95.8963 284.432 96.0819 284.632 96.2103C284.818 96.3388 285.132 96.4245 285.531 96.453L286.502 96.5386C286.787 96.5672 286.987 96.5529 287.116 96.5244C287.244 96.4958 287.344 96.4102 287.401 96.2817C287.458 96.1532 287.501 95.9391 287.53 95.6536L287.772 92.9129L287.002 92.8415C286.616 92.813 286.345 92.8986 286.188 93.127C286.045 93.3554 285.931 93.5838 285.888 93.8265C285.831 94.0692 285.803 94.2262 285.788 94.2975L285.517 94.269C285.574 93.8836 285.617 93.5267 285.66 93.1699L285.703 92.6132C285.731 92.2135 285.76 91.671 285.788 90.9573L286.059 90.9859C286.059 91.043 286.074 91.2285 286.074 91.5568C286.088 91.8852 286.159 92.1421 286.331 92.3134C286.488 92.499 286.73 92.5989 287.044 92.6274L287.815 92.6988L288.058 89.901C288.086 89.6155 288.072 89.4014 288.044 89.2586C288.015 89.1302 287.929 89.0302 287.801 88.9732C287.673 88.9161 287.473 88.8732 287.201 88.8447L286.345 88.7733C285.86 88.7305 285.489 88.759 285.217 88.8732C284.96 88.9731 284.761 89.173 284.618 89.4442C284.475 89.7154 284.361 90.1294 284.247 90.6718L283.975 90.6433C283.975 90.4292 284.004 90.1437 284.047 89.8011Z" fill="#292F36"/>
<path d="M272.814 84.5052C273.028 84.4624 273.271 84.5052 273.527 84.6194C273.827 84.7479 274.027 84.9335 274.141 85.1761C274.255 85.4331 274.27 85.7899 274.198 86.261L273.984 87.4315C273.913 87.8455 273.87 88.1595 273.856 88.4022C273.841 88.6306 273.899 88.8447 273.999 89.0303C274.098 89.2158 274.284 89.3586 274.555 89.4728L275.583 89.901L276.625 87.4172C276.739 87.146 276.796 86.9462 276.811 86.8034C276.825 86.6607 276.768 86.5465 276.668 86.4466C276.568 86.3467 276.397 86.2467 276.14 86.1325L276.225 85.9184C276.554 86.0754 276.996 86.2753 277.581 86.518C278.195 86.7749 278.666 86.9605 278.98 87.0604L278.895 87.2745C278.623 87.1746 278.424 87.1318 278.295 87.1175C278.152 87.1175 278.038 87.1603 277.953 87.2745C277.853 87.3744 277.753 87.56 277.639 87.8312L275.397 93.1842C275.283 93.4554 275.226 93.6552 275.212 93.798C275.198 93.9407 275.255 94.0549 275.355 94.1548C275.455 94.2547 275.626 94.3547 275.883 94.4831L275.797 94.6973C275.497 94.5545 275.069 94.3547 274.498 94.112C274.213 93.9978 273.913 93.8693 273.57 93.7266C273.228 93.5839 272.999 93.4982 272.871 93.4411C272.314 93.1984 271.872 92.9272 271.543 92.5989C271.215 92.2706 271.029 91.928 270.944 91.5569C270.858 91.1857 270.901 90.8289 271.058 90.472C271.172 90.1865 271.358 89.9296 271.615 89.7012C271.872 89.4728 272.2 89.3015 272.6 89.2158C272.999 89.1302 273.485 89.1445 274.013 89.2729L273.884 89.2016C273.585 89.016 273.356 88.8304 273.213 88.6306C273.071 88.445 272.971 88.2309 272.942 88.0025C272.899 87.7741 272.914 87.4886 272.971 87.146L273.171 85.9327C273.213 85.69 273.242 85.5045 273.242 85.3617C273.242 85.219 273.228 85.1048 273.185 85.0191C273.142 84.9335 273.071 84.8621 272.971 84.8336C272.857 84.7765 272.742 84.7765 272.642 84.805C272.543 84.8336 272.4 84.9049 272.214 85.0048L272.1 84.8193C272.357 84.6623 272.6 84.5481 272.814 84.5052ZM273.527 89.587C273.185 89.6298 272.914 89.7583 272.7 89.9724C272.485 90.1865 272.3 90.472 272.143 90.8431C271.9 91.4284 271.843 91.9423 272 92.3562C272.157 92.7702 272.543 93.1128 273.185 93.384C273.413 93.4839 273.585 93.5268 273.727 93.5125C273.856 93.5125 273.97 93.4554 274.07 93.3412C274.17 93.227 274.27 93.0414 274.37 92.7845L275.483 90.1294L274.755 89.8296C274.284 89.6298 273.87 89.5441 273.527 89.587Z" fill="#292F36"/>
<path d="M261.679 86.4466C261.808 86.4894 261.936 86.4609 262.05 86.3895C262.165 86.3181 262.322 86.1611 262.507 85.9327L266.09 81.3649C266.276 81.1365 266.39 80.9509 266.433 80.8225C266.476 80.694 266.461 80.5655 266.39 80.4513C266.319 80.3371 266.176 80.1801 265.962 79.9945L266.104 79.809C266.376 80.0516 266.747 80.3657 267.246 80.7511C267.775 81.165 268.174 81.4648 268.445 81.6504L268.303 81.8359C268.074 81.6647 267.889 81.5647 267.76 81.5362C267.632 81.4934 267.503 81.5076 267.389 81.5933C267.275 81.6646 267.118 81.8217 266.932 82.0501L263.349 86.6179C263.164 86.8463 263.05 87.0319 263.007 87.1603C262.964 87.2888 262.978 87.4173 263.05 87.5315C263.121 87.6457 263.264 87.8027 263.478 87.9883L263.335 88.1738C263.092 87.9597 262.707 87.6457 262.179 87.2174C261.679 86.832 261.28 86.5323 260.994 86.3324L261.137 86.1469C261.38 86.3039 261.551 86.4038 261.679 86.4466Z" fill="#292F36"/>
<path d="M252.458 76.2832C252.4 75.6409 252.543 74.9985 252.872 74.3847C253.214 73.7566 253.728 73.1999 254.442 72.6717C255.141 72.1721 255.841 71.8438 256.569 71.7154C257.297 71.5869 257.968 71.6297 258.596 71.8724C259.224 72.115 259.752 72.529 260.166 73.1143C260.608 73.7138 260.851 74.3419 260.908 74.9842C260.965 75.6266 260.822 76.2689 260.494 76.8827C260.152 77.5108 259.638 78.0675 258.924 78.5957C258.225 79.0953 257.525 79.4236 256.797 79.5521C256.083 79.6805 255.398 79.6377 254.77 79.3951C254.142 79.1524 253.614 78.7384 253.2 78.1674C252.757 77.5536 252.515 76.9256 252.458 76.2832ZM254.599 78.8241C255.098 78.924 255.669 78.8812 256.297 78.6813C256.926 78.4815 257.554 78.1532 258.21 77.6678C258.867 77.1968 259.381 76.6829 259.738 76.1405C260.109 75.598 260.309 75.0556 260.337 74.5417C260.38 74.0278 260.251 73.571 259.98 73.1856C259.681 72.7859 259.295 72.529 258.781 72.4291C258.282 72.3292 257.711 72.372 257.083 72.5718C256.454 72.7717 255.826 73.1 255.17 73.571C254.513 74.0421 253.999 74.556 253.642 75.1127C253.271 75.6551 253.071 76.1833 253.029 76.7114C252.986 77.2253 253.114 77.6821 253.385 78.0675C253.685 78.4672 254.085 78.7242 254.599 78.8241Z" fill="#292F36"/>
<path d="M253.557 59.0966C253.728 59.2251 253.856 59.4392 253.942 59.7247C254.042 60.0245 254.028 60.31 253.914 60.5526C253.799 60.8096 253.528 61.0522 253.114 61.2949L252.072 61.8801C251.715 62.0943 251.444 62.2656 251.259 62.4083C251.073 62.5511 250.944 62.7224 250.873 62.9222C250.802 63.122 250.802 63.3504 250.887 63.6359L251.216 64.7065L253.785 63.9071C254.071 63.8215 254.256 63.7358 254.37 63.6502C254.485 63.5645 254.542 63.4504 254.556 63.3219C254.57 63.1934 254.527 62.9793 254.456 62.7081L254.684 62.6367C254.77 62.9793 254.899 63.4646 255.098 64.0642C255.298 64.7065 255.455 65.1776 255.569 65.4773L255.341 65.5487C255.241 65.2775 255.155 65.0919 255.07 64.992C254.984 64.8921 254.87 64.8207 254.727 64.8207C254.584 64.8207 254.37 64.8493 254.099 64.9492L248.561 66.6621C248.275 66.7478 248.09 66.8334 247.975 66.9191C247.861 67.0047 247.804 67.1189 247.79 67.2474C247.776 67.3901 247.818 67.59 247.89 67.8612L247.661 67.9326C247.59 67.6185 247.461 67.1617 247.276 66.5622C247.19 66.2767 247.076 65.9484 246.962 65.6058C246.848 65.2632 246.762 65.0205 246.719 64.8921C246.534 64.3068 246.477 63.7929 246.519 63.3362C246.562 62.8794 246.705 62.5082 246.933 62.2085C247.162 61.9087 247.461 61.7089 247.833 61.5947C248.118 61.509 248.432 61.4805 248.775 61.5233C249.117 61.5661 249.446 61.7089 249.788 61.9658C250.131 62.2227 250.416 62.5939 250.659 63.0935L250.645 62.9507C250.602 62.5939 250.588 62.3084 250.645 62.0657C250.702 61.8231 250.802 61.6232 250.944 61.4519C251.101 61.2806 251.33 61.0951 251.63 60.9238L252.686 60.2957C252.9 60.1815 253.071 60.0673 253.171 59.9816C253.271 59.896 253.357 59.8103 253.4 59.7247C253.443 59.639 253.443 59.5391 253.414 59.4392C253.371 59.3107 253.314 59.2251 253.228 59.168C253.143 59.1109 253 59.0395 252.8 58.9681L252.872 58.754C253.157 58.854 253.4 58.9681 253.557 59.0966ZM250.145 62.9222C249.902 62.6938 249.617 62.5653 249.317 62.5368C249.017 62.5082 248.675 62.5511 248.289 62.6795C247.676 62.8651 247.262 63.1649 247.033 63.5503C246.805 63.9357 246.805 64.4638 247.005 65.1062C247.076 65.3346 247.162 65.5059 247.247 65.6058C247.333 65.7057 247.461 65.7628 247.604 65.7628C247.747 65.7628 247.961 65.72 248.218 65.6486L250.959 64.7922L250.73 64.0356C250.588 63.5217 250.388 63.1506 250.145 62.9222Z" fill="#292F36"/>
<path d="M252.458 45.5501C253 45.3074 253.329 44.8506 253.471 44.1655C253.514 43.9085 253.514 43.6516 253.443 43.4089C253.371 43.1662 253.243 42.9521 253.043 42.7666C252.843 42.581 252.572 42.4525 252.215 42.3954C251.915 42.3383 251.644 42.3669 251.387 42.4668C251.13 42.5667 250.873 42.7237 250.631 42.9379C250.388 43.152 250.102 43.4375 249.788 43.7943C249.432 44.194 249.118 44.5223 248.846 44.7507C248.575 44.9934 248.275 45.1647 247.947 45.2932C247.619 45.4216 247.248 45.4359 246.834 45.3645C246.405 45.2789 246.049 45.1219 245.792 44.8649C245.535 44.608 245.349 44.3082 245.263 43.9513C245.178 43.5945 245.178 43.2233 245.249 42.8237C245.292 42.581 245.349 42.3954 245.42 42.2241C245.492 42.0528 245.563 41.9244 245.649 41.8244C245.734 41.7245 245.82 41.6103 245.934 41.4961C246.077 41.3391 246.148 41.2249 246.177 41.1393C246.191 41.0679 246.163 41.0108 246.091 40.9537C246.02 40.8966 245.891 40.8538 245.72 40.7967L245.763 40.5397C246.206 40.6539 246.976 40.8252 248.104 41.0393L248.061 41.2963C247.662 41.2535 247.29 41.2677 246.919 41.3534C246.562 41.4248 246.248 41.5818 245.991 41.8244C245.734 42.0528 245.563 42.3811 245.492 42.7808C245.435 43.0521 245.449 43.2947 245.52 43.5374C245.592 43.7801 245.72 43.9656 245.891 44.1226C246.077 44.2797 246.291 44.3796 246.548 44.4367C246.962 44.5081 247.319 44.451 247.619 44.2511C247.918 44.0513 248.204 43.7943 248.475 43.4946C248.746 43.1948 248.918 42.995 249.018 42.895C249.417 42.4668 249.746 42.1385 250.017 41.8958C250.288 41.6531 250.588 41.4819 250.916 41.3677C251.244 41.2535 251.601 41.2392 251.987 41.3106C252.458 41.3962 252.843 41.5818 253.129 41.853C253.414 42.1385 253.6 42.4668 253.7 42.8665C253.8 43.2662 253.8 43.6944 253.714 44.1512C253.643 44.5223 253.557 44.8078 253.428 45.0362C253.314 45.2646 253.157 45.4644 252.986 45.65C252.843 45.807 252.772 45.9212 252.743 46.0069C252.729 46.0783 252.758 46.1354 252.829 46.1925C252.9 46.2495 253.029 46.3066 253.2 46.3495L253.157 46.6064C252.743 46.4922 251.83 46.3066 250.417 46.0497L250.459 45.7928C251.259 45.8641 251.915 45.7928 252.458 45.5501Z" fill="#292F36"/>
<path d="M249.632 33.5165C249.232 33.3024 248.776 33.1026 248.262 32.9027C248.576 32.346 249.104 31.3754 249.818 29.9907C250.531 28.6204 251.031 27.6497 251.302 27.0645C251.773 27.3642 252.201 27.6212 252.587 27.821C252.929 28.0066 253.229 28.135 253.458 28.235L253.329 28.4776C252.758 28.2492 252.33 28.1065 252.03 28.0637C251.73 28.0066 251.459 28.0637 251.231 28.2064C251.002 28.3492 250.774 28.6347 250.56 29.0629L250.274 29.6339L256.17 32.7029C256.455 32.8599 256.684 32.9313 256.841 32.9456C256.998 32.9598 257.14 32.917 257.269 32.8028C257.397 32.6886 257.54 32.4745 257.711 32.1747L257.926 32.2889C257.711 32.6458 257.44 33.1454 257.098 33.802C256.741 34.4872 256.484 35.0154 256.327 35.3437L256.113 35.2295C256.255 34.9154 256.355 34.6728 256.37 34.5158C256.398 34.3445 256.355 34.2017 256.241 34.0733C256.127 33.9448 255.941 33.8163 255.656 33.6593L249.761 30.576L249.461 31.1327C249.232 31.5609 249.132 31.9035 249.147 32.1747C249.161 32.446 249.275 32.6886 249.489 32.9027C249.703 33.1169 250.06 33.4023 250.574 33.7307L250.446 33.9733C250.26 33.8591 249.975 33.7021 249.632 33.5165Z" fill="#292F36"/>
<path d="M259.709 17.1153C259.952 16.8726 260.152 16.6442 260.295 16.4729L260.466 16.6442C260.38 16.7727 260.338 16.9582 260.352 17.1724C260.366 17.3865 260.423 17.6862 260.537 18.0431L261.836 21.9115L263.35 23.4103C263.564 23.6102 263.721 23.7529 263.849 23.81C263.978 23.8671 264.106 23.8671 264.235 23.81C264.363 23.7529 264.52 23.6244 264.734 23.4389L264.905 23.6102C264.634 23.8528 264.277 24.1954 263.835 24.6379C263.364 25.109 263.021 25.4801 262.807 25.7228L262.636 25.5515C262.821 25.3374 262.95 25.1804 263.007 25.0519C263.064 24.9234 263.064 24.795 262.993 24.6665C262.936 24.538 262.793 24.3667 262.593 24.1669L261.337 22.925L256.569 21.5261C256.284 21.4404 256.069 21.4119 255.927 21.4262C255.784 21.4404 255.684 21.4833 255.613 21.5546L255.441 21.3833C255.67 21.1835 255.927 20.9551 256.184 20.6839C256.712 20.1415 257.097 19.756 257.311 19.4991L257.483 19.6704C257.097 20.0558 257.012 20.3556 257.226 20.5697C257.311 20.6553 257.426 20.7124 257.597 20.7695L261.608 22.0114L260.552 18.8567C260.395 18.4 260.238 18.0859 260.066 17.9289C259.909 17.7719 259.738 17.7291 259.552 17.7862C259.367 17.8433 259.153 17.986 258.896 18.2287L258.725 18.0574C259.067 17.7433 259.381 17.4293 259.709 17.1153Z" fill="#292F36"/>
<path d="M268.346 11.3626C268.26 11.4625 268.217 11.591 268.246 11.7337C268.275 11.8765 268.346 12.0763 268.489 12.3333L271.244 17.4436C271.386 17.7005 271.501 17.8718 271.615 17.9717C271.715 18.0716 271.843 18.1002 271.972 18.0859C272.1 18.0716 272.3 17.986 272.543 17.8575L273.299 17.4436C273.727 17.2152 274.027 16.9725 274.184 16.7298C274.341 16.4872 274.398 16.2159 274.356 15.8876C274.313 15.5593 274.184 15.1454 273.956 14.6029L274.199 14.4745C274.298 14.7028 274.441 14.9883 274.627 15.3309C274.841 15.7163 275.098 16.1446 275.412 16.6156C274.941 16.844 274.141 17.258 273.042 17.8575C271.729 18.5712 270.73 19.1137 270.073 19.4991L269.959 19.2992C270.202 19.1565 270.373 19.028 270.459 18.9281C270.544 18.8282 270.587 18.6997 270.559 18.557C270.53 18.4142 270.459 18.2144 270.316 17.9574L267.532 12.8472C267.39 12.5902 267.275 12.4189 267.161 12.319C267.061 12.2191 266.933 12.1905 266.804 12.2048C266.662 12.2191 266.476 12.2905 266.219 12.4189L266.119 12.2048C266.419 12.0763 266.861 11.8479 267.447 11.5196C268.003 11.2199 268.432 10.9772 268.731 10.7916L268.846 10.9915C268.603 11.1342 268.446 11.2627 268.346 11.3626Z" fill="#292F36"/>
<path d="M285.731 12.276C285.817 12.7043 285.945 13.1896 286.102 13.732C285.574 13.8177 284.703 13.9747 283.475 14.2174C282.005 14.5029 280.906 14.7313 280.15 14.9026L280.107 14.6742C280.378 14.6028 280.578 14.5457 280.692 14.46C280.806 14.3887 280.878 14.2745 280.892 14.146C280.906 14.0033 280.892 13.7891 280.835 13.5037L279.721 7.80811C279.664 7.52262 279.607 7.32278 279.521 7.19431C279.436 7.06584 279.35 6.99446 279.207 6.98019C279.079 6.95164 278.865 6.96591 278.594 7.00874L278.551 6.78034C279.307 6.65187 280.421 6.45203 281.877 6.16654C283.004 5.93815 283.804 5.78113 284.261 5.66693C284.303 6.18081 284.375 6.6376 284.446 7.03729C284.503 7.33705 284.56 7.56544 284.617 7.73674L284.361 7.79384C284.203 7.3085 284.061 6.95164 283.932 6.72325C283.804 6.49485 283.618 6.35211 283.404 6.28074C283.176 6.20936 282.876 6.20936 282.462 6.29501L281.506 6.48058C281.234 6.53768 281.035 6.59478 280.92 6.66615C280.806 6.73752 280.735 6.83744 280.706 6.98019C280.692 7.12293 280.706 7.33705 280.763 7.62254L281.291 10.3347L282.048 10.1777C282.433 10.1063 282.662 9.93502 282.747 9.67808C282.833 9.42113 282.862 9.17847 282.847 8.9358C282.833 8.69313 282.819 8.53611 282.819 8.46474L283.076 8.40764C283.119 8.79305 283.176 9.14992 283.247 9.49251L283.361 10.0349C283.433 10.4204 283.561 10.9628 283.747 11.648L283.49 11.7051C283.475 11.648 283.418 11.4767 283.318 11.1626C283.219 10.8486 283.076 10.6345 282.862 10.506C282.648 10.3775 282.405 10.349 282.091 10.4061L281.334 10.5488L281.877 13.3038C281.934 13.5893 281.991 13.7891 282.062 13.9176C282.134 14.0318 282.234 14.1032 282.376 14.1317C282.505 14.146 282.719 14.1317 282.99 14.0746L283.832 13.9033C284.303 13.8034 284.66 13.6749 284.889 13.5037C285.117 13.3324 285.246 13.0897 285.303 12.7899C285.36 12.4902 285.36 12.0619 285.317 11.5052L285.574 11.4481C285.617 11.6622 285.66 11.9335 285.731 12.276Z" fill="#292F36"/>
<path d="M276.111 66.7905C275.455 65.9055 274.884 64.9348 274.384 63.8642C273.884 62.7936 273.485 61.7088 273.185 60.5954C272.528 55.6992 272.514 50.9458 273.128 46.3351C273.742 41.7244 274.741 37.1851 276.111 32.7029C276.34 32.2033 276.839 31.9606 277.61 31.9606C278.381 31.9606 279.138 32.1319 279.908 32.4745C280.679 32.8171 281.307 33.2739 281.807 33.8449C282.306 34.4159 282.421 35.0154 282.149 35.6292C281.721 36.5428 281.307 37.7847 280.893 39.3263C280.479 40.8822 280.065 42.5952 279.694 44.4651C279.309 46.3351 278.98 48.305 278.695 50.3463C278.41 52.3875 278.195 54.3574 278.067 56.2274C277.938 58.0973 277.91 59.796 277.981 61.3091C278.053 62.8222 278.281 64.0213 278.666 64.892C280.465 62.4796 282.107 59.9816 283.605 57.3979C285.104 54.8142 286.503 52.2019 287.816 49.5326C289.13 46.8775 290.386 44.1939 291.571 41.4675C292.755 38.7553 293.926 36.0717 295.068 33.4309C295.639 32.0891 296.21 30.6759 296.767 29.1914C297.323 27.6926 298.051 26.4221 298.979 25.3515C299.365 25.0089 299.664 24.8948 299.864 25.0089C300.078 25.1231 300.221 25.3373 300.292 25.6656C300.364 25.9939 300.407 26.3365 300.407 26.6933C300.407 27.0502 300.407 27.3357 300.407 27.5213C300.135 29.277 299.907 31.0185 299.721 32.7457C299.536 34.473 299.122 36.1288 298.522 37.7418C297.523 40.2684 296.51 42.7665 295.453 45.2645C294.397 47.7483 293.269 50.2035 292.07 52.6159C290.871 55.0283 289.558 57.3693 288.173 59.639C286.774 61.9229 285.261 64.0926 283.605 66.1482C282.306 67.7897 281.007 68.6605 279.737 68.7604C278.41 68.8746 277.225 68.2037 276.111 66.7905Z" fill="#292F36" stroke="white" stroke-miterlimit="10"/>
<path d="M299.749 60.3099C298.978 59.2393 298.222 58.1544 297.479 57.041C296.737 55.9276 296.366 54.7143 296.366 53.3725C296.366 51.8879 296.794 50.4747 297.651 49.1472C298.507 47.834 299.492 46.7634 300.605 45.964C301.062 45.6642 301.533 45.4073 302.004 45.2217C302.475 45.0361 302.989 45.0504 303.532 45.2788C303.76 45.393 304.003 45.4787 304.246 45.5358C304.488 45.5929 304.717 45.6642 304.902 45.7356C305.088 45.807 305.302 45.9212 305.53 46.0782C305.759 46.2352 305.873 46.4351 305.873 46.7063C305.873 47.7769 305.901 48.6476 305.958 49.3185C306.016 49.9894 306.101 50.5604 306.215 51.0457C306.33 51.5311 306.444 51.945 306.558 52.3019C306.672 52.673 306.786 53.0584 306.901 53.4724C306.972 53.8578 306.958 54.1861 306.843 54.4431C306.729 54.7143 306.444 54.7428 305.987 54.5573C305.145 54.2575 304.517 53.6437 304.117 52.7158C303.717 51.788 303.418 50.9601 303.232 50.1893C303.189 50.0322 303.104 49.7753 302.947 49.3899C302.789 49.0045 302.704 48.7333 302.661 48.5905C302.361 48.5191 301.99 48.6191 301.576 48.9045C301.162 49.19 300.777 49.5897 300.463 50.0751C300.134 50.5747 299.92 51.1456 299.835 51.8023C299.735 52.4589 299.863 53.1013 300.206 53.7579C300.363 53.9863 300.577 54.2718 300.862 54.5858C301.148 54.9141 301.433 55.2424 301.719 55.585C302.004 55.9276 302.29 56.2702 302.575 56.5842C302.861 56.8983 303.104 57.1695 303.289 57.3551C303.518 57.5835 303.675 57.7119 303.746 57.7262C303.817 57.7405 304.017 57.6977 304.317 57.5835C304.702 57.3979 305.288 57.141 306.073 56.8412C306.858 56.5414 307.686 56.2274 308.542 55.9276C309.399 55.6279 310.227 55.3709 311.012 55.1568C311.797 54.9427 312.396 54.8427 312.825 54.8427C313.096 54.8427 313.281 54.9427 313.395 55.1282C313.51 55.2424 313.495 55.3995 313.338 55.585C313.181 55.7706 312.982 55.9704 312.739 56.156C312.496 56.3416 312.225 56.5129 311.968 56.6699C311.697 56.8269 311.526 56.9126 311.454 56.9554C310.798 57.3408 309.984 57.769 308.985 58.2544C307.985 58.7254 307.129 59.1965 306.401 59.6533C306.33 59.7246 306.187 59.8103 305.973 59.8817C305.759 59.953 305.602 60.0387 305.487 60.1101C305.944 61.1378 306.272 62.0371 306.458 62.7794C306.644 63.5217 306.715 64.2354 306.658 64.9348C306.601 65.62 306.458 66.3195 306.23 67.0332C306.001 67.7469 305.687 68.5606 305.316 69.4741C304.774 70.3592 304.231 71.2014 303.675 72.0007C303.118 72.8001 302.504 73.5281 301.805 74.1847C301.119 74.8414 300.363 75.3553 299.563 75.7264C298.764 76.1118 297.879 76.2974 296.923 76.2974C296.38 76.2974 295.866 76.226 295.367 76.0975C294.867 75.9691 294.453 75.6836 294.111 75.2696C293.226 74.3132 292.74 73.2712 292.626 72.1435C292.512 71.0158 292.612 69.9024 292.912 68.789C293.14 68.1038 293.425 67.4757 293.768 66.8905C294.61 65.4345 295.538 64.2068 296.552 63.1934C297.579 62.1941 298.636 61.2235 299.749 60.3099ZM301.705 62.8936C301.276 63.3218 300.705 63.9214 299.977 64.7065C299.249 65.4916 298.579 66.348 297.936 67.2616C297.308 68.1752 296.794 69.0887 296.395 69.988C295.995 70.8873 295.895 71.6582 296.08 72.3148C296.851 71.9722 297.636 71.4012 298.436 70.6161C299.235 69.831 299.949 68.9745 300.563 68.0324C301.176 67.0903 301.605 66.1625 301.847 65.2489C302.09 64.321 302.047 63.5359 301.705 62.8936Z" fill="#292F36" stroke="white" stroke-miterlimit="10"/>
<path d="M290.444 83.5489C272.586 83.5489 258.055 69.0174 258.055 51.16C258.055 33.3025 272.586 18.7711 290.444 18.7711C308.301 18.7711 322.833 33.3025 322.833 51.16C322.833 69.0174 308.301 83.5489 290.444 83.5489ZM290.444 20.1985C273.371 20.1985 259.482 34.0876 259.482 51.16C259.482 68.2323 273.371 82.1214 290.444 82.1214C307.516 82.1214 321.405 68.2323 321.405 51.16C321.405 34.0876 307.516 20.1985 290.444 20.1985Z" fill="#292F36"/>
<path d="M484.401 72.5479H457.582C453.175 72.5479 449.604 68.9762 449.604 64.569V37.7508C449.604 33.3436 453.175 29.7719 457.582 29.7719H484.401C488.808 29.7719 492.38 33.3436 492.38 37.7508V64.569C492.38 68.9762 488.808 72.5479 484.401 72.5479Z" fill="#292F36"/>
<path d="M478.699 51.5535C479.462 52.51 479.849 53.6238 479.849 54.883C479.849 56.7355 479.232 58.1884 477.997 59.2175C476.762 60.2467 474.994 60.7794 472.694 60.7794H462.645V39.1674H472.452C474.655 39.1674 476.35 39.6517 477.549 40.6082C478.748 41.5647 479.353 42.9329 479.353 44.7006C479.353 46.0082 479.002 47.0858 478.312 47.9575C477.622 48.8293 476.714 49.3862 475.588 49.6526C476.907 49.9674 477.936 50.597 478.699 51.5535ZM467.863 48.0059H471.289C473.105 48.0059 474.014 47.2311 474.014 45.6813C474.014 44.1315 473.081 43.3566 471.229 43.3566H467.863V48.0059ZM474.498 54.1566C474.498 53.3817 474.244 52.7763 473.735 52.3405C473.227 51.9046 472.5 51.6866 471.568 51.6866H467.875V56.5418H471.604C473.529 56.5297 474.498 55.7427 474.498 54.1566Z" fill="white"/>
<path d="M517.165 60.7798L512.491 52.6193H511.305V60.7798H506.074V39.1678H514.997C516.705 39.1678 518.158 39.4584 519.332 40.0516C520.519 40.6449 521.402 41.4561 521.996 42.4853C522.589 43.5144 522.88 44.6888 522.88 46.0207C522.88 47.5947 522.444 48.9265 521.584 50.0283C520.712 51.1301 519.465 51.8807 517.806 52.2924L522.94 60.7919H517.165V60.7798ZM511.305 49.0476H514.537C515.579 49.0476 516.341 48.8175 516.826 48.3574C517.31 47.8973 517.564 47.2193 517.564 46.3234C517.564 45.4637 517.31 44.7978 516.814 44.3014C516.317 43.8171 515.554 43.5628 514.537 43.5628H511.305V49.0476Z" fill="#292F36"/>
<path d="M546.538 56.8449H538.438L537.094 60.7919H531.597L539.515 39.3373H545.533L553.451 60.7919H547.894L546.538 56.8449ZM545.194 52.8615L542.506 44.9189L539.782 52.8615H545.194Z" fill="#292F36"/>
<path d="M582.303 60.7798H577.073L568.331 47.5099V60.7798H563.101V39.1678H568.331L577.073 52.5588V39.1678H582.303V60.7798Z" fill="#292F36"/>
<path d="M611.628 55.5736C610.72 57.2081 609.412 58.4915 607.717 59.4117C606.01 60.3318 604.012 60.7919 601.712 60.7919H593.551V39.1799H601.712C604.036 39.1799 606.046 39.6279 607.729 40.5239C609.424 41.4198 610.72 42.679 611.628 44.3135C612.536 45.9481 612.984 47.8126 612.984 49.9435C612.984 52.0503 612.524 53.9269 611.628 55.5736ZM605.998 54.4839C607.124 53.4063 607.693 51.8808 607.693 49.9314C607.693 47.97 607.124 46.4566 605.998 45.379C604.872 44.3014 603.286 43.7566 601.24 43.7566H598.77V56.1063H601.24C603.286 56.1063 604.872 55.5736 605.998 54.4839Z" fill="#292F36"/>
<path d="M741.224 37.9575L742.295 37.7291C742.566 37.7291 742.795 37.7862 742.952 37.9004C743.109 38.0146 743.194 38.1288 743.194 38.2287C743.194 38.3286 743.166 38.4856 743.123 38.6712C743.08 38.8568 742.68 40.7696 741.938 44.381C741.196 47.9925 740.653 50.6904 740.311 52.4604C741.967 50.205 743.908 47.4358 746.121 44.1383C748.333 40.8409 749.632 38.6569 750.003 37.5721C750.117 37.2295 750.274 36.9725 750.46 36.787C750.646 36.6014 750.817 36.4872 750.96 36.4586C751.102 36.4301 751.331 36.4016 751.631 36.4016C751.93 36.4016 752.287 36.4729 752.701 36.6014C753.115 36.7299 753.329 36.944 753.329 37.258C753.329 37.829 752.473 39.4991 750.774 42.2398C749.075 44.9805 747.12 47.8925 744.922 50.9758C742.723 54.0591 740.896 56.5001 739.426 58.2987C739.169 58.6127 738.841 58.784 738.469 58.784C738.098 58.784 737.699 58.7127 737.285 58.5842C736.871 58.4557 736.657 58.2273 736.657 57.8847C736.657 56.8141 737.599 51.6468 739.483 42.4111C737.87 44.4952 735.914 47.4072 733.616 51.1329C731.218 54.987 729.862 57.3851 729.548 58.2987C729.377 58.8554 729.177 59.1837 728.948 59.2694C728.791 59.3407 728.62 59.3693 728.449 59.3693L727.292 59.4977C727.064 59.4977 726.864 59.4406 726.664 59.3122C726.479 59.1837 726.379 59.0552 726.379 58.9125C726.379 58.5271 726.921 57.3566 727.992 55.4152C729.063 53.4739 730.333 51.3613 731.775 49.0773C733.216 46.7934 734.715 44.5809 736.285 42.4254C737.856 40.27 739.069 38.8139 739.925 38.0859C740.097 37.9289 740.297 37.8576 740.525 37.8576L741.224 37.9575Z" fill="#292F36"/>
<path d="M758.382 47.6358C759.124 47.6358 759.495 47.8927 759.495 48.3923C759.495 48.6635 759.438 48.8634 759.31 48.9918C759.181 49.1203 758.91 49.5343 758.496 50.2623C758.082 50.976 757.625 51.8896 757.126 53.0173C756.626 54.1307 756.298 55.0871 756.155 55.8722C756.127 55.9721 756.112 56.1006 756.112 56.2861C756.112 56.8286 756.255 57.0855 756.555 57.0855C756.855 57.0855 757.197 56.9428 757.597 56.6715C757.997 56.386 758.353 56.1006 758.667 55.7722C758.982 55.4582 759.281 55.1299 759.581 54.8016C759.881 54.4733 760.052 54.2734 760.109 54.2306C760.166 54.1878 760.252 54.1592 760.366 54.1592C760.552 54.1592 760.666 54.302 760.709 54.5875C760.752 54.8729 760.766 55.1584 760.766 55.4725C760.766 55.7865 760.737 55.9864 760.68 56.1006C760.395 56.6573 759.781 57.3282 758.81 58.1133C757.854 58.8984 756.969 59.2838 756.184 59.2838C755.399 59.2838 754.813 59.0411 754.456 58.57C754.1 58.099 753.9 57.5566 753.9 56.9856C753.9 56.4003 754 55.9007 754.2 55.4582C753.386 56.5145 752.458 57.3995 751.416 58.1418C750.36 58.8698 749.518 59.241 748.847 59.241C748.176 59.241 747.648 59.0411 747.219 58.6414C746.677 58.1418 746.42 57.4566 746.42 56.5716C746.42 55.6866 746.62 54.8016 747.019 53.9023C747.419 53.0173 747.933 52.1893 748.575 51.4613C749.218 50.7191 749.931 50.0482 750.702 49.4486C752.315 48.1782 753.814 47.5501 755.184 47.5501C755.713 47.5501 756.141 47.6358 756.469 47.8071C756.798 47.9783 757.012 48.2067 757.097 48.4637C757.326 48.1068 757.526 47.8927 757.697 47.7928C757.825 47.6786 758.068 47.6358 758.382 47.6358ZM756.441 49.2631C754.771 49.2631 753.043 50.1909 751.259 52.0466C750.631 52.7175 750.046 53.5026 749.503 54.4304C748.961 55.3583 748.704 55.9864 748.704 56.3289C748.704 56.6715 748.804 56.8428 749.004 56.8428C749.275 56.8428 750.031 56.3004 751.288 55.2298C752.544 54.1592 753.372 53.3598 753.771 52.846C754.228 52.275 755.113 51.0759 756.441 49.2631Z" fill="#292F36"/>
<path d="M769.487 39.8988L770.087 40.0415C770.173 40.0415 770.258 40.0844 770.315 40.17C770.387 40.2557 770.415 40.3413 770.415 40.4127C770.415 40.4841 770.315 40.6982 770.101 41.0408C769.887 41.3834 769.659 41.7688 769.373 42.197C769.088 42.6252 768.945 42.8679 768.931 42.9107C769.687 42.8536 770.23 42.8251 770.544 42.8251C770.858 42.8251 771.072 42.8536 771.2 42.8965C771.315 42.9393 771.457 43.0678 771.6 43.2676C771.757 43.4674 771.886 43.6245 772.014 43.7244C772.142 43.8243 772.2 43.9813 772.2 44.1812C772.2 44.381 772.071 44.5666 771.828 44.695C771.586 44.8378 771.315 44.9234 771.029 44.952C768.759 45.1804 767.518 45.2946 767.289 45.3089C766.504 46.5222 765.391 48.4064 763.977 50.9616C762.564 53.5167 761.808 55.1297 761.722 55.7721C761.679 56.0719 761.665 56.3002 761.665 56.4858C761.665 56.8712 761.865 57.0568 762.264 57.0568C762.664 57.0568 763.107 56.8998 763.592 56.6C764.077 56.286 764.534 55.9577 764.934 55.6008C766.033 54.6301 766.618 54.1305 766.69 54.1305C766.947 54.1305 767.075 54.573 767.075 55.4438C767.075 55.9148 766.861 56.3431 766.418 56.7285C765.433 57.5707 764.605 58.213 763.935 58.6413C763.264 59.0695 762.593 59.2836 761.908 59.2836C761.765 59.2836 761.622 59.2693 761.494 59.2408C760.709 59.0981 760.138 58.8126 759.781 58.3843C759.41 57.9561 759.238 57.3851 759.238 56.6714C759.238 55.9577 759.452 55.0726 759.881 54.0449C760.309 53.0171 760.837 51.918 761.479 50.7617C762.536 48.8632 763.592 47.0932 764.634 45.4373L764.077 45.5087C762.95 45.6372 762.293 45.6943 762.107 45.6943H761.979C761.693 45.6943 761.422 45.6372 761.165 45.523C760.908 45.4088 760.766 45.266 760.766 45.109C760.766 44.9377 760.837 44.7807 760.98 44.6237C761.123 44.4667 761.208 44.3382 761.237 44.2525C761.308 44.0384 761.565 43.7958 762.008 43.5388C762.45 43.2819 762.778 43.1391 763.007 43.1248C763.235 43.1106 763.449 43.0963 763.663 43.082C763.877 43.0678 764.106 43.0677 764.363 43.0535C764.62 43.0392 764.82 43.0392 764.962 43.0249L766.276 42.9678C767.089 41.7402 767.66 40.9408 767.96 40.5983C768.274 40.2414 768.445 40.0558 768.488 40.0273C768.531 39.9987 768.631 39.9702 768.788 39.9702L769.487 39.8988Z" fill="#292F36"/>
<path d="M778.267 54.1592C778.452 54.1592 778.567 54.3019 778.609 54.5874C778.652 54.8729 778.666 55.1584 778.666 55.4724C778.666 55.7865 778.638 55.9863 778.581 56.1005C778.295 56.6429 777.682 57.3138 776.725 58.0989C775.769 58.884 774.855 59.2837 773.999 59.2837C773.471 59.2837 772.985 59.1267 772.528 58.8127C772.086 58.4986 771.857 57.9419 771.857 57.1568C771.857 56.3717 772.072 55.5866 772.486 54.8301C770.059 57.8706 768.175 59.3837 766.79 59.3837C766.248 59.3837 765.805 59.1838 765.463 58.7984C765.12 58.413 764.963 58.0133 764.963 57.5851C764.963 57.1711 765.02 56.7429 765.134 56.3004C765.248 55.8578 765.377 55.4582 765.505 55.1013C765.634 54.7444 765.834 54.3162 766.091 53.8023C766.348 53.2884 766.547 52.9173 766.662 52.6746C766.776 52.432 766.99 52.0894 767.275 51.6183C767.561 51.1472 767.918 50.5049 768.375 49.7055C768.831 48.9061 769.202 48.3066 769.502 47.9212C769.802 47.5358 770.087 47.3359 770.373 47.3359C770.658 47.3359 770.901 47.4501 771.115 47.6785C771.329 47.9069 771.444 48.1068 771.444 48.2495C771.444 48.3923 771.115 49.0489 770.459 50.2194C768.532 53.7167 767.561 55.7436 767.561 56.3289C767.561 56.4716 767.618 56.543 767.718 56.543C768.189 56.543 769.359 55.5295 771.215 53.5025C773.071 51.4756 774.156 50.1766 774.455 49.6056C774.755 49.0346 775.026 48.5493 775.312 48.1639C775.583 47.7785 775.797 47.5358 775.94 47.4501C776.354 47.1789 776.896 47.0362 777.567 47.0076C777.682 47.0076 777.753 47.0076 777.81 47.0219C777.867 47.0362 777.938 47.1218 778.01 47.2646C778.081 47.4073 778.124 47.5358 778.124 47.6357C778.038 47.9069 777.653 48.6349 776.953 49.8197C776.268 51.0045 775.883 51.6754 775.812 51.8181C774.655 54.202 774.084 55.7579 774.084 56.4716C774.084 56.8856 774.241 57.0855 774.555 57.0855C775.126 57.0141 775.812 56.5573 776.611 55.7294C776.911 55.4296 777.196 55.1156 777.482 54.8015C777.767 54.4875 777.953 54.3019 778.01 54.2591C778.081 54.1877 778.167 54.1592 778.267 54.1592Z" fill="#292F36"/>
<path d="M782.506 50.7761C784.804 48.1639 786.774 46.8506 788.387 46.8506C788.787 46.8506 789.115 46.9648 789.372 47.2075C789.629 47.4502 789.757 47.7499 789.757 48.1353C789.757 48.5207 789.486 49.1488 788.944 50.0481C788.401 50.9331 787.902 51.6897 787.445 52.3035C787.202 52.6175 786.931 52.7746 786.617 52.7746C786.317 52.7746 786.075 52.6604 785.903 52.432C785.732 52.2036 785.646 51.9466 785.646 51.6469C785.646 50.976 786.003 50.2051 786.731 49.3629L786.703 49.3344C786.374 49.3629 785.589 50.0053 784.305 51.2329C783.034 52.4748 781.949 53.5882 781.05 54.5589C780.165 55.5438 779.194 56.7286 778.138 58.1418C777.838 58.5557 777.581 58.7699 777.367 58.7699C777.153 58.7699 776.882 58.6985 776.539 58.57C776.197 58.4415 775.982 58.3416 775.911 58.2845C775.84 58.2274 775.797 58.1275 775.797 57.9848C775.797 57.8563 775.84 57.685 775.911 57.5137C775.982 57.3281 776.139 57.0712 776.339 56.7429C776.539 56.4146 776.867 55.8721 777.296 55.1299C777.724 54.3876 778.381 53.2599 779.28 51.7611C780.179 50.2622 780.707 49.3487 780.893 49.0346C781.264 48.3923 781.564 47.9212 781.806 47.6357C782.249 47.079 782.991 46.8078 784.033 46.8078C784.262 46.8078 784.39 46.9505 784.39 47.2503C784.39 47.7071 783.962 48.5778 783.12 49.834L782.506 50.7761Z" fill="#292F36"/>
<path d="M798.251 47.807C798.251 48.4493 797.994 49.0203 797.466 49.5056C796.938 49.991 796.353 50.2336 795.682 50.2336C795.468 50.2336 795.325 50.1765 795.254 50.0766C795.182 49.9767 795.154 49.8339 795.154 49.6769C795.154 49.5199 795.168 49.3486 795.211 49.1916C794.854 49.3058 794.469 49.4914 794.04 49.734C793.612 49.9767 793.084 50.3336 792.456 50.8189C791.828 51.3042 791.514 51.6468 791.514 51.8895C791.514 51.9609 791.628 52.0037 791.856 52.0037C792.085 52.0037 792.442 51.918 792.913 51.761C793.384 51.604 793.726 51.5183 793.912 51.5183C794.097 51.5183 794.226 51.5326 794.283 51.5469C794.411 51.6183 794.54 51.761 794.697 51.9894C794.84 52.2178 794.911 52.4034 794.911 52.5318C794.911 52.6603 794.783 52.8316 794.526 53.0457C794.269 53.2598 793.983 53.4169 793.669 53.531C793.341 53.6452 793.127 53.7309 793.027 53.788C790.971 54.9442 789.944 55.7293 789.944 56.1576C789.944 56.9141 790.586 57.2995 791.885 57.2995C792.713 57.2995 793.555 57.0426 794.383 56.5144C795.097 56.0719 795.739 55.6151 796.31 55.1441C796.881 54.6873 797.238 54.4018 797.395 54.2876C797.552 54.1734 797.666 54.1306 797.737 54.1306C797.994 54.1306 798.123 54.4161 798.123 54.9871C798.123 55.558 798.094 55.9292 798.023 56.1005C797.952 56.286 797.766 56.5002 797.438 56.7714C795.354 58.47 793.369 59.3265 791.514 59.3265C790.514 59.3265 789.729 59.1838 789.13 58.9125C788.031 58.4129 787.488 57.6564 787.488 56.6286C787.488 55.2868 788.416 54.259 790.286 53.5739C789.915 53.4026 789.672 53.2027 789.572 52.9315C789.458 52.6746 789.415 52.2606 789.415 51.6896C789.415 51.1186 789.687 50.5191 790.215 49.8768C790.743 49.2344 791.4 48.7063 792.17 48.3066C793.883 47.3787 795.425 46.9219 796.767 46.9219C797.095 46.9219 797.409 46.9933 797.752 47.1503C798.094 47.3073 798.251 47.5215 798.251 47.807Z" fill="#292F36"/>
<path d="M831.569 37.8719H831.754C831.811 37.8719 831.854 37.8719 831.869 37.8862C831.883 37.9005 831.897 37.9005 831.926 37.9147C831.954 37.9147 831.968 37.929 831.997 37.9576C832.04 38.0004 832.111 38.0432 832.197 38.086C832.311 38.1717 832.368 38.2716 832.368 38.3858C832.368 38.5 832.254 38.7427 832.026 39.1138C831.797 39.4849 831.212 40.3842 830.255 41.8402C828.071 45.1805 826.116 48.2923 824.389 51.1472C821.405 56.1148 819.892 58.6128 819.864 58.6414C819.835 58.6699 819.821 58.6985 819.807 58.727C819.792 58.7841 819.764 58.8127 819.692 58.8127L819.492 58.7698L819.093 58.8698L818.864 58.8269L818.622 58.8698H818.536L817.722 58.984C817.237 58.984 816.994 58.8127 816.994 58.4843C816.994 58.3416 817.037 58.1703 817.123 57.9705C817.423 57.2567 818.95 54.673 821.691 50.1908C819.892 50.2337 818.108 50.2622 816.352 50.2622L813.212 50.2479C812.698 51.0759 811.984 52.2464 811.085 53.7737C809.143 57.0997 808.116 58.7698 807.987 58.7984C807.859 58.8269 807.759 58.8555 807.673 58.8555C807.588 58.8555 807.516 58.8127 807.459 58.7127C807.388 58.6271 807.345 58.57 807.316 58.57C807.288 58.57 807.245 58.5843 807.159 58.6271C807.088 58.6699 806.974 58.6842 806.817 58.6842L806.474 58.6699L806.346 58.5843C806.331 58.5843 806.317 58.5985 806.303 58.6271C806.289 58.6556 806.246 58.6699 806.189 58.6699C805.775 58.6699 805.561 58.4986 805.561 58.1418C805.561 57.9134 805.646 57.5993 805.803 57.2139C805.975 56.8285 806.189 56.4145 806.46 55.972C806.731 55.5295 807.416 54.4589 808.544 52.7888C809.657 51.1187 810.214 50.2765 810.214 50.2622C810.028 50.2479 809.814 50.2479 809.572 50.2337C809.072 50.2337 808.729 50.2194 808.515 50.1766C807.959 50.0766 807.573 49.6199 807.373 48.8062C807.259 48.4065 807.216 48.1496 807.231 48.0211C807.231 47.7642 807.345 47.6214 807.573 47.6214L807.959 47.7213C808.159 47.7356 808.615 47.7499 809.358 47.7927C810.1 47.8355 810.628 47.8498 810.956 47.8498L811.784 47.8213C813.055 45.8371 814.568 43.5817 816.338 41.0694C815.053 42.1257 813.626 42.6539 812.055 42.6539C811.313 42.6539 810.671 42.4826 810.143 42.1257C809.6 41.7689 809.343 41.3121 809.343 40.7696C809.343 40.2272 809.543 39.799 809.957 39.4707C810.371 39.1566 810.756 38.9996 811.128 38.9996C811.499 38.9996 811.684 39.0567 811.684 39.1709C811.684 39.2137 811.627 39.2565 811.527 39.2994C811.427 39.3565 811.37 39.3993 811.37 39.4421C811.37 39.5991 811.542 39.7419 811.884 39.8561C812.227 39.9703 812.612 40.0416 813.04 40.0416C813.469 40.0416 813.983 39.9132 814.611 39.6705C815.239 39.4278 815.881 39.0995 816.552 38.7141C817.494 38.1717 818.236 37.7149 818.779 37.358C819.093 37.201 819.378 37.1296 819.664 37.1296C819.949 37.1296 820.135 37.1582 820.263 37.2296C820.392 37.2867 820.477 37.358 820.535 37.4151C820.592 37.4722 820.663 37.5579 820.72 37.6578C820.791 37.7577 820.849 37.8434 820.92 37.8862C820.977 37.9433 821.02 38.0004 821.02 38.0718C821.02 38.1431 820.977 38.2431 820.906 38.4001C820.834 38.5428 820.463 39.1423 819.792 40.1844C819.121 41.2264 818.251 42.554 817.194 44.167C816.138 45.78 815.367 46.9648 814.882 47.7356C817.494 47.7356 820.306 47.6928 823.332 47.5929C827.015 41.7831 828.957 38.7427 829.156 38.4572C829.356 38.1717 829.542 37.9861 829.713 37.9005C829.884 37.8148 830.084 37.772 830.327 37.772L831.569 37.8719Z" fill="#292F36"/>
<path d="M836.336 47.6071C836.636 47.6071 836.936 47.7356 837.235 48.0068C837.549 48.278 837.692 48.6777 837.692 49.2202C837.692 49.7626 837.507 50.462 837.121 51.3328C836.736 52.1893 836.222 53.0743 835.551 53.9736C834.894 54.8586 834.152 55.7008 833.367 56.4859C832.568 57.271 831.711 57.9133 830.797 58.413C829.87 58.9126 829.042 59.1695 828.285 59.1695C827.529 59.1695 826.929 58.9268 826.472 58.4558C826.015 57.9847 825.787 57.3281 825.787 56.4859C825.787 55.6437 826.001 54.7016 826.415 53.6881C826.829 52.6603 827.357 51.761 828.014 50.9759C828.671 50.1908 829.37 49.4914 830.141 48.8633C831.725 47.5786 833.124 46.9505 834.323 46.9505C834.866 46.9505 835.265 47.079 835.537 47.3502C835.637 47.4358 835.679 47.5215 835.679 47.5786V47.6642C835.836 47.6071 836.05 47.6071 836.336 47.6071ZM834.866 49.5485H834.766C834.423 49.5485 834.252 49.3058 834.252 48.8062C833.538 49.0346 832.796 49.4485 832.011 50.0338C831.226 50.6191 830.526 51.3185 829.912 52.1179C828.656 53.7166 828.028 55.0727 828.014 56.1719C828.014 56.7143 828.214 56.9855 828.613 56.9855C829.013 56.9855 829.613 56.7143 830.398 56.2004C831.183 55.6865 831.968 54.93 832.753 53.945C833.524 52.9744 834.109 52.1179 834.495 51.4042C834.88 50.6904 835.08 50.2051 835.08 49.9339C835.066 49.6769 834.994 49.5485 834.866 49.5485Z" fill="#292F36"/>
<path d="M837.377 58.8412L836.664 58.8126H836.407C836.307 58.7841 836.207 58.727 836.093 58.6413C835.978 58.5557 835.893 58.4843 835.836 58.4557C835.779 58.4272 835.75 58.3415 835.75 58.2416C835.75 58.1417 835.793 57.9561 835.864 57.7135C837.763 53.531 839.604 50.1765 841.388 47.6785C841.588 47.4073 841.902 47.1931 842.331 47.0504C842.759 46.9076 843.187 46.8363 843.601 46.8363C843.844 46.8363 843.972 47.0218 843.972 47.4073C843.972 47.5214 843.929 47.6642 843.858 47.8355C843.787 48.0211 843.587 48.3065 843.273 48.7205C842.959 49.1345 842.588 49.6055 842.159 50.1194C841.731 50.6333 841.488 50.9473 841.431 51.033C842.773 49.6484 843.972 48.6206 845.057 47.9354C846.142 47.2645 846.913 46.9219 847.398 46.9219C847.883 46.9219 848.254 47.0647 848.511 47.3359C848.768 47.6071 848.897 47.9069 848.897 48.2209C848.897 48.5349 848.868 48.8062 848.825 49.006C848.783 49.2201 848.697 49.4342 848.583 49.6626C848.469 49.891 848.369 50.0909 848.283 50.2479C848.197 50.4049 848.055 50.619 847.869 50.876C847.669 51.1329 847.541 51.3185 847.469 51.4184C847.398 51.5183 847.241 51.7039 847.013 51.9751C846.784 52.2463 846.656 52.4033 846.641 52.4319C846.913 52.1607 847.298 51.761 847.783 51.2186C848.269 50.6761 848.683 50.2336 849.025 49.8768C849.368 49.5199 849.782 49.1059 850.296 48.6491C850.81 48.1924 851.281 47.8212 851.709 47.55C852.765 46.8934 853.836 46.5508 854.921 46.5508C855.292 46.5508 855.606 46.665 855.863 46.9076C856.12 47.1503 856.248 47.4215 856.248 47.7498C856.248 48.0782 855.849 48.8633 855.063 50.0909C854.278 51.3185 853.479 52.5604 852.694 53.8022C851.909 55.0441 851.509 55.8292 851.509 56.1575C851.509 56.6001 851.595 56.8713 851.752 56.9569C851.923 57.0426 852.123 57.0711 852.351 57.0568C852.58 57.0426 852.922 56.8855 853.336 56.6001C853.764 56.3146 854.136 56.0291 854.464 55.715C855.006 55.2297 855.492 54.7586 855.963 54.3019C856.063 54.2162 856.163 54.1734 856.291 54.1734C856.477 54.1734 856.591 54.3161 856.634 54.6016C856.676 54.8871 856.691 55.1726 856.691 55.4866C856.691 55.8007 856.662 56.0005 856.605 56.1147C856.32 56.6572 855.692 57.3281 854.735 58.1274C853.764 58.9125 852.837 59.3122 851.952 59.3122C851.837 59.3122 851.766 59.3122 851.723 59.2979C850.724 59.198 850.025 58.9268 849.639 58.47C849.254 58.0132 849.068 57.4708 849.068 56.857C849.068 56.2432 849.282 55.4724 849.71 54.5873C850.139 53.7023 850.596 52.8887 851.109 52.1749C851.623 51.4612 852.08 50.8046 852.508 50.2193C852.937 49.6341 853.151 49.32 853.151 49.2772C853.151 49.2344 853.108 49.2058 853.036 49.2058C852.737 49.2058 852.066 49.6912 851.009 50.6761C849.225 52.3462 847.684 53.9593 846.385 55.5009C846.042 55.9149 845.228 56.9426 843.958 58.6128C843.815 58.8126 843.572 58.9125 843.258 58.9125C842.944 58.9125 842.616 58.8554 842.273 58.727C841.931 58.5985 841.76 58.4415 841.76 58.2559C841.76 58.156 842.53 56.7856 844.086 54.1448C845.642 51.504 846.413 50.0623 846.413 49.8339C846.413 49.5913 846.27 49.4771 845.985 49.4771C845.699 49.4771 845.1 49.9053 844.201 50.7618C841.731 53.1171 839.818 55.4724 838.462 57.7991C838.377 57.9419 838.205 58.156 837.948 58.4415C837.691 58.727 837.463 58.8412 837.377 58.8412Z" fill="#292F36"/>
<path d="M865.685 47.807C865.685 48.4493 865.428 49.0203 864.9 49.5056C864.372 49.991 863.786 50.2336 863.115 50.2336C862.901 50.2336 862.759 50.1765 862.687 50.0766C862.616 49.9767 862.587 49.8339 862.587 49.6769C862.587 49.5199 862.602 49.3486 862.644 49.1916C862.288 49.3058 861.902 49.4914 861.474 49.734C861.046 49.9767 860.517 50.3336 859.889 50.8189C859.261 51.3042 858.947 51.6468 858.947 51.8895C858.947 51.9609 859.061 52.0037 859.29 52.0037C859.518 52.0037 859.875 51.918 860.346 51.761C860.817 51.604 861.16 51.5183 861.345 51.5183C861.531 51.5183 861.659 51.5326 861.717 51.5469C861.845 51.6183 861.973 51.761 862.131 51.9894C862.273 52.2178 862.345 52.4034 862.345 52.5318C862.345 52.6603 862.216 52.8316 861.959 53.0457C861.702 53.2598 861.417 53.4169 861.103 53.531C860.774 53.6452 860.56 53.7309 860.46 53.788C858.405 54.9442 857.377 55.7293 857.377 56.1576C857.377 56.9141 858.019 57.2995 859.318 57.2995C860.146 57.2995 860.989 57.0426 861.816 56.5144C862.53 56.0719 863.173 55.6151 863.744 55.1441C864.315 54.6873 864.671 54.4018 864.828 54.2876C864.985 54.1734 865.1 54.1306 865.171 54.1306C865.428 54.1306 865.556 54.4161 865.556 54.9871C865.556 55.558 865.528 55.9292 865.456 56.1005C865.385 56.286 865.2 56.5002 864.871 56.7714C862.787 58.47 860.803 59.3265 858.947 59.3265C857.948 59.3265 857.163 59.1838 856.563 58.9125C855.464 58.4129 854.922 57.6564 854.922 56.6286C854.922 55.2868 855.85 54.259 857.72 53.5739C857.349 53.4026 857.106 53.2027 857.006 52.9315C856.892 52.6746 856.849 52.2606 856.849 51.6896C856.849 51.1186 857.12 50.5191 857.648 49.8768C858.176 49.2344 858.833 48.7063 859.604 48.3066C861.317 47.3787 862.859 46.9219 864.2 46.9219C864.529 46.9219 864.843 46.9933 865.185 47.1503C865.528 47.3073 865.685 47.5215 865.685 47.807Z" fill="#292F36"/>
<path d="M720.982 62.7952C724.737 64.3654 728.562 65.5787 732.459 66.5066C736.328 67.4772 740.267 68.1624 744.207 68.5906C746.177 68.8618 748.161 68.8904 750.117 69.076C752.101 69.0902 754.071 69.2473 756.041 69.1331L758.996 69.0617C759.98 69.0474 760.965 68.919 761.95 68.8619C762.935 68.7762 763.92 68.7334 764.891 68.6049L767.817 68.1909C771.743 67.7627 775.554 66.8491 779.351 65.75C783.191 64.6937 786.817 63.2948 790.656 61.8388C794.582 60.397 798.836 59.4549 803.147 59.9117C805.274 60.1829 807.415 60.8681 809.156 62.1243C810.912 63.3662 812.168 65.1362 812.968 66.9919C811.768 65.336 810.27 63.98 808.542 63.1378C806.815 62.2956 804.917 61.953 803.032 62.0101C799.221 62.0672 795.467 63.3376 791.941 64.9364C788.358 66.7064 784.476 68.3051 780.564 69.6327C776.625 70.9031 772.556 71.9166 768.431 72.4305C760.223 73.5154 751.815 73.5296 743.707 71.8881C739.639 71.1458 735.671 69.9895 731.831 68.5193C728.02 66.9919 724.294 65.2076 720.982 62.7952Z" fill="#292F36"/>
<path d="M857.489 39.0281C854.306 37.672 851.066 36.6157 847.782 35.7878C844.514 34.9171 841.202 34.3033 837.876 33.875C836.22 33.6181 834.536 33.561 832.88 33.3611C831.21 33.3183 829.554 33.147 827.884 33.2184C827.056 33.2327 826.214 33.2327 825.386 33.2184C824.558 33.2184 823.716 33.304 822.888 33.3326C822.06 33.3897 821.218 33.404 820.39 33.4896L817.906 33.7894C814.58 34.0606 811.354 34.7458 808.128 35.588C804.859 36.3731 801.761 37.4865 798.464 38.5999C795.081 39.7276 791.412 40.4128 787.729 39.8989C785.917 39.5991 784.089 38.9567 782.648 37.8148C781.177 36.6871 780.178 35.1454 779.564 33.5324C780.578 34.9456 781.834 36.1018 783.276 36.8156C784.718 37.5293 786.302 37.8291 787.887 37.8148C791.084 37.8148 794.253 36.787 797.251 35.5023C800.305 34.0463 803.66 32.7616 807 31.7053C810.369 30.6918 813.88 29.921 817.392 29.5498C824.401 28.8076 831.567 28.9788 838.433 30.6061C841.873 31.3341 845.227 32.4476 848.439 33.8179C851.665 35.2168 854.777 36.8441 857.489 39.0281Z" fill="#292F36"/>
<path d="M973.684 56.7841V27.5784H990.884V56.7699H973.684V56.7841ZM988.8 49.9894L989.243 46.7634L987.644 46.6064L987.159 49.0902C986.16 49.5898 984.932 49.8324 983.462 49.8324C981.463 49.8324 979.879 49.2044 978.723 47.9339C977.552 46.6635 976.981 44.9934 976.981 42.9093C976.981 40.8823 977.552 39.2122 978.68 37.8989C979.807 36.5857 981.292 35.929 983.133 35.929C984.075 35.929 984.875 36.0432 985.517 36.2573C986.16 36.4715 986.745 36.757 987.302 37.1281L987.773 39.5833L989.4 39.4263L988.929 36.2003C988.244 35.615 987.43 35.1439 986.488 34.7728C985.546 34.4159 984.375 34.2304 982.991 34.2304C981.349 34.2304 979.936 34.6301 978.751 35.4437C977.566 36.2573 976.638 37.3279 975.982 38.6555C975.325 39.9973 974.997 41.439 974.997 42.9807C974.997 45.4216 975.753 47.4629 977.267 49.0902C978.78 50.7175 980.749 51.5311 983.19 51.5311C985.589 51.5311 987.459 51.0172 988.8 49.9894Z" fill="#292F36"/>
<path d="M996.723 56.7841V27.5784H1004.12V56.7699H996.723V56.7841ZM997.508 51.2742H1003.35V49.8039H1001.33V33.5024H997.479V34.9726H999.52V49.8039H997.508V51.2742Z" fill="#292F36"/>
<path d="M1009.96 56.7841V27.5784H1022.94V56.7699H1009.96V56.7841ZM1012.31 40.6539L1011.9 43.309L1013.4 43.4945L1013.84 41.5104C1014.48 41.1963 1015.21 41.0393 1016.06 41.0393C1017.09 41.0393 1017.79 41.2963 1018.15 41.8101C1018.51 42.324 1018.68 42.9949 1018.68 43.8229V44.8506C1018.36 44.8221 1018.03 44.7935 1017.68 44.7792C1017.32 44.765 1016.98 44.7507 1016.64 44.7507C1015.35 44.7507 1014.12 44.9791 1012.98 45.4359C1011.84 45.8927 1011.27 46.8491 1011.27 48.2908C1011.27 49.5184 1011.65 50.3606 1012.44 50.8174C1013.22 51.2884 1013.99 51.5168 1014.75 51.5168C1015.68 51.5168 1016.48 51.2742 1017.14 50.7888C1017.79 50.3035 1018.31 49.7611 1018.68 49.133V49.1901C1018.71 50.746 1019.4 51.5168 1020.78 51.5168C1021.3 51.5168 1021.8 51.3884 1022.27 51.1314L1022.25 49.9466C1022.02 50.0465 1021.76 50.1036 1021.47 50.1036C1020.82 50.1036 1020.49 49.6897 1020.49 48.8618V43.3946C1020.49 40.8252 1019.12 39.5405 1016.38 39.5405C1015.62 39.5405 1014.91 39.6261 1014.24 39.7974C1013.55 39.983 1012.91 40.2685 1012.31 40.6539ZM1018.66 46.9632C1018.59 47.9054 1018.21 48.6619 1017.51 49.2043C1016.81 49.7611 1016.06 50.0323 1015.27 50.0323C1014.77 50.0323 1014.28 49.8895 1013.82 49.6183C1013.35 49.3471 1013.12 48.8332 1013.12 48.0909C1013.12 47.1916 1013.48 46.6207 1014.17 46.3494C1014.87 46.0782 1015.64 45.9498 1016.51 45.9498C1016.89 45.9498 1017.26 45.964 1017.62 46.0069C1017.98 46.0354 1018.33 46.064 1018.65 46.0782V46.9632H1018.66Z" fill="#292F36"/>
<path d="M1028.8 56.7841V27.5784H1040.6V56.7699H1028.8V56.7841ZM1039.36 47.9482C1039.36 47.0346 1039.12 46.3637 1038.63 45.9212C1038.15 45.4787 1037.56 45.1789 1036.85 45.0076C1036.13 44.8363 1035.43 44.6936 1034.74 44.5794C1034.04 44.4652 1033.44 44.2796 1032.95 44.037C1032.47 43.7943 1032.22 43.3661 1032.22 42.7523C1032.22 42.167 1032.45 41.7388 1032.92 41.4533C1033.39 41.1678 1033.98 41.0393 1034.71 41.0393C1035.55 41.0393 1036.33 41.2249 1037.06 41.6103L1037.35 43.466L1038.85 43.2804L1038.56 40.5968C1038.08 40.297 1037.49 40.0544 1036.79 39.8545C1036.09 39.6547 1035.35 39.5405 1034.55 39.5405C1033.49 39.5405 1032.52 39.7974 1031.62 40.297C1030.72 40.7966 1030.28 41.6531 1030.28 42.8807C1030.28 43.78 1030.52 44.4367 1031.01 44.8506C1031.49 45.2789 1032.09 45.5643 1032.82 45.7356C1033.55 45.9069 1034.26 46.0497 1034.98 46.1782C1035.69 46.2923 1036.29 46.4922 1036.78 46.7491C1037.26 47.0061 1037.5 47.4486 1037.5 48.0909C1037.5 48.7476 1037.19 49.2329 1036.56 49.5469C1035.93 49.861 1035.22 50.018 1034.41 50.018C1033.49 50.018 1032.64 49.8324 1031.85 49.447L1031.92 47.9196L1030.48 47.7626L1030.12 50.3749C1030.62 50.7032 1031.28 50.9744 1032.08 51.1885C1032.88 51.4026 1033.68 51.5168 1034.49 51.5168C1035.88 51.5168 1037.03 51.2028 1037.96 50.5604C1038.89 49.9466 1039.36 49.0616 1039.36 47.9482Z" fill="#292F36"/>
<path d="M1046.44 56.7841V27.5784H1058.25V56.7699H1046.44V56.7841ZM1057 47.9482C1057 47.0346 1056.76 46.3637 1056.28 45.9212C1055.79 45.4787 1055.21 45.1789 1054.49 45.0076C1053.78 44.8363 1053.08 44.6936 1052.38 44.5794C1051.68 44.4652 1051.08 44.2796 1050.6 44.037C1050.11 43.7943 1049.87 43.3661 1049.87 42.7523C1049.87 42.167 1050.1 41.7388 1050.57 41.4533C1051.04 41.1678 1051.62 41.0393 1052.35 41.0393C1053.19 41.0393 1053.98 41.2249 1054.71 41.6103L1054.99 43.466L1056.49 43.2804L1056.21 40.5968C1055.72 40.297 1055.13 40.0544 1054.44 39.8545C1053.74 39.6547 1052.99 39.5405 1052.19 39.5405C1051.14 39.5405 1050.17 39.7974 1049.27 40.297C1048.37 40.7966 1047.93 41.6531 1047.93 42.8807C1047.93 43.78 1048.17 44.4367 1048.65 44.8506C1049.14 45.2789 1049.74 45.5643 1050.47 45.7356C1051.19 45.9069 1051.91 46.0497 1052.62 46.1782C1053.34 46.2923 1053.94 46.4922 1054.42 46.7491C1054.91 47.0061 1055.15 47.4486 1055.15 48.0909C1055.15 48.7476 1054.83 49.2329 1054.21 49.5469C1053.58 49.861 1052.86 50.018 1052.05 50.018C1051.14 50.018 1050.28 49.8324 1049.5 49.447L1049.57 47.9196L1048.13 47.7626L1047.77 50.3749C1048.27 50.7032 1048.93 50.9744 1049.72 51.1885C1050.52 51.4026 1051.32 51.5168 1052.14 51.5168C1053.52 51.5168 1054.68 51.2028 1055.61 50.5604C1056.53 49.9466 1057 49.0616 1057 47.9482Z" fill="#292F36"/>
<path d="M1064.08 56.7841V27.5784H1071.86V56.7699H1064.08V56.7841ZM1065.23 51.2742H1071.06V49.8039H1069.05V39.7832H1065.18V41.2534H1067.25V49.8039H1065.24V51.2742H1065.23ZM1067.05 34.4588V36.8141H1069.02V34.4588H1067.05Z" fill="#292F36"/>
<path d="M1077.7 56.7841V27.5784H1090.14V56.7699H1077.7V56.7841ZM1089.02 47.4058L1087.47 47.0632C1087.12 49.0045 1086.08 49.9752 1084.37 49.9752C1083.23 49.9752 1082.36 49.5898 1081.76 48.8189C1081.16 48.0481 1080.86 46.9632 1080.86 45.5929C1080.86 44.351 1081.13 43.2947 1081.66 42.4097C1082.19 41.5247 1083.07 41.0964 1084.3 41.0964C1085.24 41.0964 1086.07 41.3105 1086.75 41.7388L1087.2 43.6801L1088.69 43.4945L1088.25 40.7253C1087.67 40.2828 1087.05 39.9687 1086.41 39.7974C1085.77 39.6261 1085.07 39.5405 1084.31 39.5405C1082.53 39.5405 1081.17 40.1686 1080.29 41.4247C1079.39 42.6809 1078.95 44.1083 1078.95 45.6928C1078.95 47.5342 1079.42 48.976 1080.37 49.9894C1081.31 51.0172 1082.59 51.5311 1084.17 51.5311C1085.75 51.5311 1086.92 51.0886 1087.67 50.2178C1088.41 49.3328 1088.87 48.405 1089.02 47.4058Z" fill="#292F36"/>
<path d="M981.121 72.7287C980.792 73.3283 980.307 73.7993 979.679 74.1276C979.037 74.456 978.28 74.6273 977.395 74.6273H974.84V66.5764H977.395C978.28 66.5764 979.051 66.7334 979.679 67.0618C980.307 67.3901 980.792 67.8468 981.121 68.4607C981.449 69.0745 981.606 69.7739 981.606 70.6018C981.606 71.4155 981.449 72.1292 981.121 72.7287ZM979.707 72.8858C980.264 72.3433 980.535 71.5868 980.535 70.6018C980.535 69.6169 980.264 68.8603 979.707 68.3179C979.151 67.7755 978.351 67.5043 977.295 67.5043H975.853V73.6994H977.295C978.351 73.6994 979.151 73.4282 979.707 72.8858Z" fill="#292F36"/>
<path d="M986.901 67.4186V70.1736H989.956V70.973H986.901V73.7851H990.299V74.6273H985.859V66.5764H990.299V67.4186H986.901Z" fill="#292F36"/>
<path d="M999.32 73.5996C999.134 73.9279 998.863 74.1991 998.492 74.3989C998.121 74.5988 997.664 74.713 997.107 74.713C996.579 74.713 996.094 74.6131 995.68 74.4275C995.266 74.2276 994.938 73.9707 994.681 73.6281C994.438 73.2855 994.295 72.9001 994.253 72.4719H995.366C995.394 72.7003 995.466 72.9287 995.594 73.1428C995.723 73.3569 995.923 73.5425 996.165 73.6852C996.408 73.828 996.708 73.8993 997.065 73.8993C997.521 73.8993 997.878 73.7851 998.121 73.5282C998.364 73.2712 998.492 72.9715 998.492 72.5861C998.492 72.2578 998.406 71.9865 998.235 71.7867C998.064 71.5869 997.85 71.4156 997.607 71.3014C997.364 71.1872 997.008 71.0587 996.579 70.916C996.065 70.7447 995.666 70.5876 995.352 70.4449C995.038 70.3021 994.781 70.0738 994.567 69.774C994.352 69.4742 994.238 69.0888 994.238 68.6035C994.238 68.1895 994.338 67.8184 994.538 67.4901C994.738 67.176 995.023 66.9191 995.409 66.7478C995.78 66.5765 996.237 66.4908 996.736 66.4908C997.521 66.4908 998.164 66.6764 998.621 67.0618C999.092 67.4472 999.349 67.9326 999.434 68.5321H998.321C998.264 68.2181 998.092 67.9326 997.835 67.6899C997.564 67.4472 997.207 67.3188 996.751 67.3188C996.337 67.3188 995.994 67.433 995.751 67.6471C995.494 67.8612 995.38 68.1752 995.38 68.5607C995.38 68.8747 995.466 69.1316 995.623 69.3172C995.794 69.517 995.994 69.6598 996.237 69.774C996.479 69.8882 996.822 70.0024 997.236 70.1451C997.75 70.3164 998.164 70.4734 998.492 70.6305C998.806 70.7875 999.077 71.0159 999.291 71.3156C999.506 71.6154 999.62 72.0294 999.62 72.5433C999.591 72.9144 999.506 73.2712 999.32 73.5996Z" fill="#292F36"/>
<path d="M1004.89 66.5764V74.6273H1003.85V66.5764H1004.89Z" fill="#292F36"/>
<path d="M1015.42 67.1903C1016.07 67.6614 1016.49 68.2895 1016.71 69.0888H1015.61C1015.42 68.6035 1015.09 68.2038 1014.65 67.9183C1014.21 67.6186 1013.68 67.4758 1013.07 67.4758C1012.53 67.4758 1012.03 67.6043 1011.6 67.8612C1011.17 68.1182 1010.83 68.475 1010.57 68.9461C1010.33 69.4172 1010.2 69.9739 1010.2 70.6162C1010.2 71.2728 1010.33 71.8438 1010.57 72.3149C1010.81 72.7859 1011.17 73.1571 1011.61 73.414C1012.05 73.671 1012.57 73.7994 1013.15 73.7994C1013.65 73.7994 1014.1 73.6852 1014.51 73.4854C1014.92 73.2713 1015.25 72.9572 1015.52 72.5576C1015.79 72.1579 1015.94 71.6725 1015.99 71.1301H1012.83V70.3593H1016.86V71.3157C1016.79 71.958 1016.59 72.529 1016.27 73.0572C1015.94 73.5853 1015.49 73.985 1014.94 74.2848C1014.38 74.5845 1013.75 74.7416 1013.04 74.7416C1012.27 74.7416 1011.58 74.5703 1010.98 74.2277C1010.38 73.8851 1009.93 73.3998 1009.6 72.7717C1009.27 72.1579 1009.1 71.4441 1009.1 70.6448C1009.1 69.8454 1009.27 69.1317 1009.6 68.5179C1009.93 67.9041 1010.4 67.4044 1010.98 67.0619C1011.57 66.7193 1012.25 66.5337 1013.03 66.5337C1014 66.5051 1014.78 66.7335 1015.42 67.1903Z" fill="#292F36"/>
<path d="M1027.4 74.6273H1026.36L1022.17 68.2608V74.6273H1021.13V66.5764H1022.17L1026.36 72.9429V66.5764H1027.4V74.6273Z" fill="#292F36"/>
<path d="M1042.42 73.5996C1042.23 73.9279 1041.96 74.1991 1041.59 74.3989C1041.22 74.5988 1040.76 74.713 1040.2 74.713C1039.68 74.713 1039.19 74.6131 1038.78 74.4275C1038.36 74.2276 1038.03 73.9707 1037.78 73.6281C1037.53 73.2855 1037.39 72.9001 1037.35 72.4719H1038.46C1038.49 72.7003 1038.56 72.9287 1038.69 73.1428C1038.82 73.3569 1039.02 73.5425 1039.26 73.6852C1039.5 73.828 1039.8 73.8993 1040.16 73.8993C1040.62 73.8993 1040.97 73.7851 1041.22 73.5282C1041.46 73.2712 1041.59 72.9715 1041.59 72.5861C1041.59 72.2578 1041.5 71.9865 1041.33 71.7867C1041.16 71.5869 1040.95 71.4156 1040.7 71.3014C1040.46 71.1872 1040.1 71.0587 1039.68 70.916C1039.16 70.7447 1038.76 70.5876 1038.45 70.4449C1038.13 70.3021 1037.88 70.0738 1037.66 69.774C1037.45 69.4742 1037.33 69.0888 1037.33 68.6035C1037.33 68.1895 1037.43 67.8184 1037.63 67.4901C1037.83 67.176 1038.12 66.9191 1038.5 66.7478C1038.88 66.5765 1039.33 66.4908 1039.83 66.4908C1040.62 66.4908 1041.26 66.6764 1041.72 67.0618C1042.19 67.4472 1042.44 67.9326 1042.53 68.5321H1041.42C1041.36 68.2181 1041.19 67.9326 1040.93 67.6899C1040.66 67.4472 1040.3 67.3188 1039.85 67.3188C1039.43 67.3188 1039.09 67.433 1038.85 67.6471C1038.59 67.8612 1038.48 68.1752 1038.48 68.5607C1038.48 68.8747 1038.56 69.1316 1038.72 69.3172C1038.89 69.517 1039.09 69.6598 1039.33 69.774C1039.58 69.8882 1039.92 70.0024 1040.33 70.1451C1040.85 70.3164 1041.26 70.4734 1041.59 70.6305C1041.9 70.7875 1042.17 71.0159 1042.39 71.3156C1042.6 71.6154 1042.72 72.0294 1042.72 72.5433C1042.69 72.9144 1042.6 73.2712 1042.42 73.5996Z" fill="#292F36"/>
<path d="M1051.88 66.5764V67.4186H1049.61V74.6273H1048.55V67.4186H1046.28V66.5764H1051.88Z" fill="#292F36"/>
<path d="M1056.73 66.5764V71.4012C1056.73 72.1863 1056.9 72.7716 1057.26 73.157C1057.62 73.5281 1058.09 73.728 1058.72 73.728C1059.33 73.728 1059.8 73.5424 1060.14 73.157C1060.49 72.7716 1060.66 72.2006 1060.66 71.4155V66.5907H1061.7V71.4155C1061.7 72.5146 1061.43 73.3425 1060.89 73.885C1060.34 74.4417 1059.62 74.7129 1058.7 74.7129C1057.8 74.7129 1057.07 74.4417 1056.53 73.885C1055.99 73.3283 1055.72 72.5146 1055.72 71.4155V66.5907H1056.73V66.5764Z" fill="#292F36"/>
<path d="M1072.45 72.7287C1072.12 73.3283 1071.64 73.7993 1071.01 74.1276C1070.36 74.456 1069.61 74.6273 1068.72 74.6273H1066.17V66.5764H1068.72C1069.61 66.5764 1070.38 66.7334 1071.01 67.0618C1071.64 67.3901 1072.12 67.8468 1072.45 68.4607C1072.78 69.0745 1072.93 69.7739 1072.93 70.6018C1072.93 71.4155 1072.78 72.1292 1072.45 72.7287ZM1071.05 72.8858C1071.61 72.3433 1071.88 71.5868 1071.88 70.6018C1071.88 69.6169 1071.61 68.8603 1071.05 68.3179C1070.49 67.7755 1069.69 67.5043 1068.64 67.5043H1067.2V73.6994H1068.64C1069.68 73.6994 1070.49 73.4282 1071.05 72.8858Z" fill="#292F36"/>
<path d="M1078.25 66.5764V74.6273H1077.2V66.5764H1078.25Z" fill="#292F36"/>
<path d="M1088.47 67.0047C1089.06 67.3616 1089.54 67.8469 1089.88 68.475C1090.22 69.1031 1090.39 69.8168 1090.39 70.6019C1090.39 71.387 1090.22 72.1007 1089.88 72.7288C1089.54 73.3569 1089.06 73.8422 1088.47 74.1991C1087.87 74.556 1087.19 74.7272 1086.45 74.7272C1085.71 74.7272 1085.03 74.556 1084.43 74.1991C1083.83 73.8422 1083.34 73.3569 1083 72.7288C1082.66 72.1007 1082.48 71.387 1082.48 70.6019C1082.48 69.8168 1082.66 69.1031 1083 68.475C1083.34 67.8469 1083.81 67.3616 1084.43 67.0047C1085.04 66.6479 1085.71 66.4766 1086.45 66.4766C1087.19 66.4766 1087.87 66.6479 1088.47 67.0047ZM1084.95 67.8326C1084.51 68.0896 1084.17 68.4464 1083.93 68.9318C1083.68 69.4028 1083.55 69.9595 1083.55 70.6019C1083.55 71.23 1083.68 71.7867 1083.93 72.272C1084.17 72.7574 1084.51 73.1142 1084.95 73.3712C1085.4 73.6281 1085.88 73.7566 1086.44 73.7566C1086.98 73.7566 1087.48 73.6281 1087.92 73.3712C1088.37 73.1142 1088.71 72.7431 1088.95 72.272C1089.19 71.801 1089.32 71.2443 1089.32 70.6162C1089.32 69.9738 1089.19 69.4171 1088.95 68.9461C1088.71 68.475 1088.37 68.1039 1087.92 67.8469C1087.48 67.59 1087 67.4615 1086.44 67.4615C1085.9 67.4472 1085.4 67.5757 1084.95 67.8326Z" fill="#292F36"/>
</svg>
